<mxfile host="Electron" modified="2023-06-20T10:56:55.113Z" agent="Mozilla/5.0 (Windows NT 10.0; Win64; x64) AppleWebKit/537.36 (KHTML, like Gecko) draw.io/21.2.8 Chrome/112.0.5615.165 Electron/24.2.0 Safari/537.36" etag="KjH7PnWzIH40FAtq4eVx" version="21.2.8" type="device" pages="3">
  <diagram name="template" id="yIqdcvBnfa8WigyCO_GD">
    <mxGraphModel dx="993" dy="446" grid="1" gridSize="10" guides="1" tooltips="1" connect="1" arrows="1" fold="1" page="1" pageScale="1" pageWidth="850" pageHeight="1100" math="0" shadow="0">
      <root>
        <mxCell id="0" />
        <mxCell id="1" parent="0" />
        <mxCell id="RmX4OeuafyhdzRfgNDlT-1" value=":User&lt;br&gt;&lt;br&gt;&lt;br&gt;&lt;br&gt;&lt;br&gt;&lt;br&gt;" style="shape=umlLifeline;perimeter=lifelinePerimeter;whiteSpace=wrap;html=1;container=1;dropTarget=0;collapsible=0;recursiveResize=0;outlineConnect=0;portConstraint=eastwest;newEdgeStyle={&quot;edgeStyle&quot;:&quot;elbowEdgeStyle&quot;,&quot;elbow&quot;:&quot;vertical&quot;,&quot;curved&quot;:0,&quot;rounded&quot;:0};participant=umlActor;" parent="1" vertex="1">
          <mxGeometry x="525" y="195" width="20" height="270" as="geometry" />
        </mxCell>
        <mxCell id="RmX4OeuafyhdzRfgNDlT-2" value="&lt;b style=&quot;font-size: 16px;&quot;&gt;alternatives&lt;br&gt;(if-else)&lt;br&gt;&lt;/b&gt;" style="text;html=1;strokeColor=none;fillColor=none;align=center;verticalAlign=middle;whiteSpace=wrap;rounded=0;fontSize=16;" parent="1" vertex="1">
          <mxGeometry x="142.51999999999998" y="235" width="60" height="30" as="geometry" />
        </mxCell>
        <mxCell id="RmX4OeuafyhdzRfgNDlT-3" value="&lt;b style=&quot;font-size: 16px;&quot;&gt;iteration&lt;br&gt;(while)&lt;br&gt;&lt;/b&gt;" style="text;html=1;strokeColor=none;fillColor=none;align=center;verticalAlign=middle;whiteSpace=wrap;rounded=0;fontSize=16;" parent="1" vertex="1">
          <mxGeometry x="142.51999999999998" y="120" width="60" height="30" as="geometry" />
        </mxCell>
        <mxCell id="RmX4OeuafyhdzRfgNDlT-4" value="&lt;b style=&quot;font-size: 16px;&quot;&gt;option&lt;br&gt;(if)&lt;br&gt;&lt;/b&gt;" style="text;html=1;strokeColor=none;fillColor=none;align=center;verticalAlign=middle;whiteSpace=wrap;rounded=0;fontSize=16;" parent="1" vertex="1">
          <mxGeometry x="130" y="345" width="60" height="30" as="geometry" />
        </mxCell>
        <mxCell id="RmX4OeuafyhdzRfgNDlT-5" value="&lt;b style=&quot;font-size: 16px;&quot;&gt;reference&lt;/b&gt;&lt;br&gt;&lt;b style=&quot;font-size: 16px;&quot;&gt;(&lt;/b&gt;&lt;b&gt;Modularization&lt;/b&gt;&lt;b style=&quot;font-size: 16px;&quot;&gt;)&lt;/b&gt;" style="text;html=1;strokeColor=none;fillColor=none;align=center;verticalAlign=middle;whiteSpace=wrap;rounded=0;fontSize=16;" parent="1" vertex="1">
          <mxGeometry x="135" y="425" width="60" height="30" as="geometry" />
        </mxCell>
        <mxCell id="RmX4OeuafyhdzRfgNDlT-6" value=":System&lt;span style=&quot;font-size:11.0pt;line-height:107%;font-family:&amp;quot;Calibri&amp;quot;,sans-serif;&lt;br/&gt;mso-ascii-theme-font:minor-latin;mso-fareast-font-family:&amp;quot;Yu Mincho&amp;quot;;&lt;br/&gt;mso-fareast-theme-font:minor-fareast;mso-hansi-theme-font:minor-latin;&lt;br/&gt;mso-bidi-font-family:&amp;quot;Times New Roman&amp;quot;;mso-bidi-theme-font:minor-bidi;&lt;br/&gt;mso-font-kerning:0pt;mso-ligatures:none;mso-ansi-language:EN-US;mso-fareast-language:&lt;br/&gt;JA;mso-bidi-language:AR-SA&quot;&gt;&lt;/span&gt;" style="shape=umlLifeline;perimeter=lifelinePerimeter;whiteSpace=wrap;html=1;container=1;dropTarget=0;collapsible=0;recursiveResize=0;outlineConnect=0;portConstraint=eastwest;newEdgeStyle={&quot;edgeStyle&quot;:&quot;elbowEdgeStyle&quot;,&quot;elbow&quot;:&quot;vertical&quot;,&quot;curved&quot;:0,&quot;rounded&quot;:0};" parent="1" vertex="1">
          <mxGeometry x="615" y="195" width="100" height="270" as="geometry" />
        </mxCell>
        <mxCell id="RmX4OeuafyhdzRfgNDlT-7" value="" style="group" parent="1" vertex="1" connectable="0">
          <mxGeometry x="235" y="415" width="210" height="50" as="geometry" />
        </mxCell>
        <mxCell id="RmX4OeuafyhdzRfgNDlT-8" value="&lt;b&gt;ref&lt;/b&gt;" style="shape=umlFrame;whiteSpace=wrap;html=1;pointerEvents=0;" parent="RmX4OeuafyhdzRfgNDlT-7" vertex="1">
          <mxGeometry width="210" height="50" as="geometry" />
        </mxCell>
        <mxCell id="RmX4OeuafyhdzRfgNDlT-9" value="UseCase" style="text;html=1;align=center;verticalAlign=middle;resizable=0;points=[];autosize=1;strokeColor=none;fillColor=none;" parent="RmX4OeuafyhdzRfgNDlT-7" vertex="1">
          <mxGeometry x="83.38235294117646" y="10" width="70" height="30" as="geometry" />
        </mxCell>
        <mxCell id="RmX4OeuafyhdzRfgNDlT-10" value="" style="group" parent="1" vertex="1" connectable="0">
          <mxGeometry x="235" y="180" width="220" height="135" as="geometry" />
        </mxCell>
        <mxCell id="RmX4OeuafyhdzRfgNDlT-11" value="&lt;b&gt;alt&lt;/b&gt;" style="shape=umlFrame;whiteSpace=wrap;html=1;pointerEvents=0;width=55;height=30;" parent="RmX4OeuafyhdzRfgNDlT-10" vertex="1">
          <mxGeometry width="220" height="67.5" as="geometry" />
        </mxCell>
        <mxCell id="RmX4OeuafyhdzRfgNDlT-12" value="" style="shape=umlFrame;whiteSpace=wrap;html=1;pointerEvents=0;width=10;height=15;" parent="RmX4OeuafyhdzRfgNDlT-10" vertex="1">
          <mxGeometry y="67.5" width="220" height="67.5" as="geometry" />
        </mxCell>
        <mxCell id="RmX4OeuafyhdzRfgNDlT-13" value="[condition]" style="text;html=1;align=center;verticalAlign=middle;resizable=0;points=[];autosize=1;strokeColor=none;fillColor=none;" parent="RmX4OeuafyhdzRfgNDlT-10" vertex="1">
          <mxGeometry x="70.00411764705882" width="80" height="30" as="geometry" />
        </mxCell>
        <mxCell id="RmX4OeuafyhdzRfgNDlT-14" value="[else]" style="text;html=1;align=center;verticalAlign=middle;resizable=0;points=[];autosize=1;strokeColor=none;fillColor=none;" parent="RmX4OeuafyhdzRfgNDlT-10" vertex="1">
          <mxGeometry x="80.0041176470588" y="67.5" width="50" height="30" as="geometry" />
        </mxCell>
        <mxCell id="RmX4OeuafyhdzRfgNDlT-15" value="Note" style="shape=note;whiteSpace=wrap;html=1;size=14;verticalAlign=top;align=left;spacingTop=-6;rounded=0;shadow=0;comic=0;labelBackgroundColor=none;strokeWidth=1;fontFamily=Verdana;fontSize=12" parent="1" vertex="1">
          <mxGeometry x="485" y="125" width="100" height="35" as="geometry" />
        </mxCell>
        <mxCell id="RmX4OeuafyhdzRfgNDlT-16" value="Note" style="shape=note;whiteSpace=wrap;html=1;size=14;verticalAlign=top;align=left;spacingTop=-6;rounded=0;shadow=0;comic=0;labelBackgroundColor=none;strokeWidth=1;fontFamily=Verdana;fontSize=12" parent="1" vertex="1">
          <mxGeometry x="615" y="125" width="100" height="35" as="geometry" />
        </mxCell>
        <mxCell id="RmX4OeuafyhdzRfgNDlT-17" value="" style="group" parent="1" vertex="1" connectable="0">
          <mxGeometry x="235" y="345" width="210" height="50" as="geometry" />
        </mxCell>
        <mxCell id="RmX4OeuafyhdzRfgNDlT-18" value="&lt;b&gt;opt&lt;/b&gt;" style="shape=umlFrame;whiteSpace=wrap;html=1;pointerEvents=0;" parent="RmX4OeuafyhdzRfgNDlT-17" vertex="1">
          <mxGeometry width="210" height="50" as="geometry" />
        </mxCell>
        <mxCell id="RmX4OeuafyhdzRfgNDlT-19" value="[condition]" style="text;html=1;align=center;verticalAlign=middle;resizable=0;points=[];autosize=1;strokeColor=none;fillColor=none;" parent="RmX4OeuafyhdzRfgNDlT-17" vertex="1">
          <mxGeometry x="60.00411764705882" width="80" height="30" as="geometry" />
        </mxCell>
        <mxCell id="RmX4OeuafyhdzRfgNDlT-20" value="" style="group" parent="1" vertex="1" connectable="0">
          <mxGeometry x="235" y="120" width="210" height="50" as="geometry" />
        </mxCell>
        <mxCell id="RmX4OeuafyhdzRfgNDlT-22" value="[condition]" style="text;html=1;align=center;verticalAlign=middle;resizable=0;points=[];autosize=1;strokeColor=none;fillColor=none;" parent="RmX4OeuafyhdzRfgNDlT-20" vertex="1">
          <mxGeometry x="60.00411764705882" width="80" height="30" as="geometry" />
        </mxCell>
        <mxCell id="RmX4OeuafyhdzRfgNDlT-23" value="" style="group" parent="1" vertex="1" connectable="0">
          <mxGeometry x="235" y="345" width="210" height="50" as="geometry" />
        </mxCell>
        <mxCell id="RmX4OeuafyhdzRfgNDlT-24" value="&lt;b&gt;opt&lt;/b&gt;" style="shape=umlFrame;whiteSpace=wrap;html=1;pointerEvents=0;" parent="RmX4OeuafyhdzRfgNDlT-23" vertex="1">
          <mxGeometry width="210" height="50" as="geometry" />
        </mxCell>
        <mxCell id="RmX4OeuafyhdzRfgNDlT-25" value="[condition]" style="text;html=1;align=center;verticalAlign=middle;resizable=0;points=[];autosize=1;strokeColor=none;fillColor=none;" parent="RmX4OeuafyhdzRfgNDlT-23" vertex="1">
          <mxGeometry x="60.00411764705882" width="80" height="30" as="geometry" />
        </mxCell>
        <mxCell id="RmX4OeuafyhdzRfgNDlT-26" value="" style="group" parent="1" vertex="1" connectable="0">
          <mxGeometry x="235" y="415" width="210" height="50" as="geometry" />
        </mxCell>
        <mxCell id="RmX4OeuafyhdzRfgNDlT-27" value="&lt;b&gt;ref&lt;/b&gt;" style="shape=umlFrame;whiteSpace=wrap;html=1;pointerEvents=0;" parent="RmX4OeuafyhdzRfgNDlT-26" vertex="1">
          <mxGeometry width="210" height="50" as="geometry" />
        </mxCell>
        <mxCell id="RmX4OeuafyhdzRfgNDlT-28" value="UseCase" style="text;html=1;align=center;verticalAlign=middle;resizable=0;points=[];autosize=1;strokeColor=none;fillColor=none;" parent="RmX4OeuafyhdzRfgNDlT-26" vertex="1">
          <mxGeometry x="83.38235294117646" y="10" width="70" height="30" as="geometry" />
        </mxCell>
        <mxCell id="riuH_Y_fx2uOiBRzBJ5S-1" value="&lt;b&gt;Synchronous Message&lt;/b&gt;" style="text;html=1;strokeColor=none;fillColor=none;align=center;verticalAlign=middle;whiteSpace=wrap;rounded=0;fontSize=16;" vertex="1" parent="1">
          <mxGeometry x="90.00000000000001" y="550" width="110" height="50" as="geometry" />
        </mxCell>
        <mxCell id="riuH_Y_fx2uOiBRzBJ5S-2" value="" style="html=1;points=[];perimeter=orthogonalPerimeter;outlineConnect=0;targetShapes=umlLifeline;portConstraint=eastwest;newEdgeStyle={&quot;edgeStyle&quot;:&quot;elbowEdgeStyle&quot;,&quot;elbow&quot;:&quot;vertical&quot;,&quot;curved&quot;:0,&quot;rounded&quot;:0};" vertex="1" parent="1">
          <mxGeometry x="297.52" y="730" width="10" height="80" as="geometry" />
        </mxCell>
        <mxCell id="riuH_Y_fx2uOiBRzBJ5S-3" value="dispatch" style="html=1;verticalAlign=bottom;startArrow=none;endArrow=open;startSize=8;edgeStyle=elbowEdgeStyle;elbow=vertical;curved=0;rounded=0;startFill=0;endFill=0;" edge="1" parent="1" target="riuH_Y_fx2uOiBRzBJ5S-2">
          <mxGeometry relative="1" as="geometry">
            <mxPoint x="237.51999999999998" y="730" as="sourcePoint" />
          </mxGeometry>
        </mxCell>
        <mxCell id="riuH_Y_fx2uOiBRzBJ5S-4" value="" style="html=1;points=[];perimeter=orthogonalPerimeter;outlineConnect=0;targetShapes=umlLifeline;portConstraint=eastwest;newEdgeStyle={&quot;edgeStyle&quot;:&quot;elbowEdgeStyle&quot;,&quot;elbow&quot;:&quot;vertical&quot;,&quot;curved&quot;:0,&quot;rounded&quot;:0};" vertex="1" parent="1">
          <mxGeometry x="300" y="540" width="10" height="80" as="geometry" />
        </mxCell>
        <mxCell id="riuH_Y_fx2uOiBRzBJ5S-5" value="dispatch" style="html=1;verticalAlign=bottom;endArrow=block;edgeStyle=elbowEdgeStyle;elbow=vertical;curved=0;rounded=0;" edge="1" parent="1" target="riuH_Y_fx2uOiBRzBJ5S-4">
          <mxGeometry relative="1" as="geometry">
            <mxPoint x="230" y="540" as="sourcePoint" />
          </mxGeometry>
        </mxCell>
        <mxCell id="riuH_Y_fx2uOiBRzBJ5S-6" value="return" style="html=1;verticalAlign=bottom;endArrow=open;dashed=1;endSize=8;edgeStyle=elbowEdgeStyle;elbow=vertical;curved=0;rounded=0;" edge="1" parent="1" source="riuH_Y_fx2uOiBRzBJ5S-4">
          <mxGeometry relative="1" as="geometry">
            <mxPoint x="230" y="615" as="targetPoint" />
          </mxGeometry>
        </mxCell>
        <mxCell id="riuH_Y_fx2uOiBRzBJ5S-7" value="&lt;b&gt;Asynchronous Message&lt;/b&gt;" style="text;html=1;strokeColor=none;fillColor=none;align=center;verticalAlign=middle;whiteSpace=wrap;rounded=0;fontSize=16;" vertex="1" parent="1">
          <mxGeometry x="97.52000000000002" y="745" width="110" height="50" as="geometry" />
        </mxCell>
        <mxCell id="RmX4OeuafyhdzRfgNDlT-21" value="&lt;b style=&quot;border-color: var(--border-color);&quot;&gt;loop&lt;/b&gt;" style="shape=umlFrame;whiteSpace=wrap;html=1;pointerEvents=0;width=55;height=30;" parent="1" vertex="1">
          <mxGeometry x="235" y="110" width="210" height="50" as="geometry" />
        </mxCell>
      </root>
    </mxGraphModel>
  </diagram>
  <diagram id="E2xuY5cA6w1VEE8lPRUk" name="example">
    <mxGraphModel dx="747" dy="511" grid="1" gridSize="10" guides="1" tooltips="1" connect="1" arrows="1" fold="1" page="1" pageScale="1" pageWidth="850" pageHeight="1100" math="0" shadow="0">
      <root>
        <mxCell id="0" />
        <mxCell id="1" parent="0" />
        <mxCell id="quBGuC4Hff8wZxjRlFCy-1" value=":Student&lt;br&gt;&lt;br&gt;&lt;br&gt;&lt;br&gt;&lt;br&gt;&lt;br&gt;" style="shape=umlLifeline;perimeter=lifelinePerimeter;whiteSpace=wrap;html=1;container=1;dropTarget=0;collapsible=0;recursiveResize=0;outlineConnect=0;portConstraint=eastwest;newEdgeStyle={&quot;edgeStyle&quot;:&quot;elbowEdgeStyle&quot;,&quot;elbow&quot;:&quot;vertical&quot;,&quot;curved&quot;:0,&quot;rounded&quot;:0};participant=umlActor;" parent="1" vertex="1">
          <mxGeometry x="90" y="90" width="20" height="890" as="geometry" />
        </mxCell>
        <mxCell id="quBGuC4Hff8wZxjRlFCy-2" value=":BuzzportSystem&lt;span style=&quot;font-size:11.0pt;line-height:107%;font-family:&amp;quot;Calibri&amp;quot;,sans-serif;&lt;br/&gt;mso-ascii-theme-font:minor-latin;mso-fareast-font-family:&amp;quot;Yu Mincho&amp;quot;;&lt;br/&gt;mso-fareast-theme-font:minor-fareast;mso-hansi-theme-font:minor-latin;&lt;br/&gt;mso-bidi-font-family:&amp;quot;Times New Roman&amp;quot;;mso-bidi-theme-font:minor-bidi;&lt;br/&gt;mso-font-kerning:0pt;mso-ligatures:none;mso-ansi-language:EN-US;mso-fareast-language:&lt;br/&gt;JA;mso-bidi-language:AR-SA&quot;&gt;&lt;/span&gt;" style="shape=umlLifeline;perimeter=lifelinePerimeter;whiteSpace=wrap;html=1;container=1;dropTarget=0;collapsible=0;recursiveResize=0;outlineConnect=0;portConstraint=eastwest;newEdgeStyle={&quot;edgeStyle&quot;:&quot;elbowEdgeStyle&quot;,&quot;elbow&quot;:&quot;vertical&quot;,&quot;curved&quot;:0,&quot;rounded&quot;:0};" parent="1" vertex="1">
          <mxGeometry x="688.75" y="90" width="100" height="890" as="geometry" />
        </mxCell>
        <mxCell id="quBGuC4Hff8wZxjRlFCy-3" value="" style="html=1;points=[];perimeter=orthogonalPerimeter;outlineConnect=0;targetShapes=umlLifeline;portConstraint=eastwest;newEdgeStyle={&quot;edgeStyle&quot;:&quot;elbowEdgeStyle&quot;,&quot;elbow&quot;:&quot;vertical&quot;,&quot;curved&quot;:0,&quot;rounded&quot;:0};" parent="quBGuC4Hff8wZxjRlFCy-2" vertex="1">
          <mxGeometry x="47.75" y="70" width="5" height="80" as="geometry" />
        </mxCell>
        <mxCell id="quBGuC4Hff8wZxjRlFCy-4" value="openBrowser()" style="html=1;verticalAlign=bottom;endArrow=block;edgeStyle=elbowEdgeStyle;elbow=vertical;curved=0;rounded=0;" parent="quBGuC4Hff8wZxjRlFCy-2" target="quBGuC4Hff8wZxjRlFCy-3" edge="1">
          <mxGeometry x="0.0008" relative="1" as="geometry">
            <mxPoint x="-588.75" y="80" as="sourcePoint" />
            <mxPoint as="offset" />
          </mxGeometry>
        </mxCell>
        <mxCell id="quBGuC4Hff8wZxjRlFCy-5" value="" style="html=1;points=[];perimeter=orthogonalPerimeter;outlineConnect=0;targetShapes=umlLifeline;portConstraint=eastwest;newEdgeStyle={&quot;edgeStyle&quot;:&quot;elbowEdgeStyle&quot;,&quot;elbow&quot;:&quot;vertical&quot;,&quot;curved&quot;:0,&quot;rounded&quot;:0};" parent="quBGuC4Hff8wZxjRlFCy-2" vertex="1">
          <mxGeometry x="47.75" y="190" width="5" height="80" as="geometry" />
        </mxCell>
        <mxCell id="quBGuC4Hff8wZxjRlFCy-6" value="logIn(ID,password)" style="html=1;verticalAlign=bottom;endArrow=block;edgeStyle=elbowEdgeStyle;elbow=vertical;curved=0;rounded=0;" parent="quBGuC4Hff8wZxjRlFCy-2" target="quBGuC4Hff8wZxjRlFCy-5" edge="1">
          <mxGeometry x="0.0008" relative="1" as="geometry">
            <mxPoint x="-588.75" y="200" as="sourcePoint" />
            <mxPoint as="offset" />
          </mxGeometry>
        </mxCell>
        <mxCell id="quBGuC4Hff8wZxjRlFCy-7" value="confirms student login" style="html=1;verticalAlign=bottom;endArrow=open;dashed=1;endSize=8;edgeStyle=elbowEdgeStyle;elbow=vertical;curved=0;rounded=0;" parent="quBGuC4Hff8wZxjRlFCy-2" source="quBGuC4Hff8wZxjRlFCy-5" edge="1">
          <mxGeometry x="-0.0004" relative="1" as="geometry">
            <mxPoint x="-588.75" y="230" as="targetPoint" />
            <Array as="points">
              <mxPoint x="-147.5" y="230" />
            </Array>
            <mxPoint as="offset" />
          </mxGeometry>
        </mxCell>
        <mxCell id="quBGuC4Hff8wZxjRlFCy-8" value="then&amp;nbsp;take the student to homepage" style="html=1;verticalAlign=bottom;endArrow=open;dashed=1;endSize=8;edgeStyle=elbowEdgeStyle;elbow=vertical;curved=0;rounded=0;" parent="quBGuC4Hff8wZxjRlFCy-2" edge="1">
          <mxGeometry relative="1" as="geometry">
            <mxPoint x="-588.75" y="260" as="targetPoint" />
            <Array as="points">
              <mxPoint x="-147.5" y="260" />
            </Array>
            <mxPoint x="49.25" y="260" as="sourcePoint" />
            <mxPoint as="offset" />
          </mxGeometry>
        </mxCell>
        <mxCell id="quBGuC4Hff8wZxjRlFCy-9" value="" style="html=1;points=[];perimeter=orthogonalPerimeter;outlineConnect=0;targetShapes=umlLifeline;portConstraint=eastwest;newEdgeStyle={&quot;edgeStyle&quot;:&quot;elbowEdgeStyle&quot;,&quot;elbow&quot;:&quot;vertical&quot;,&quot;curved&quot;:0,&quot;rounded&quot;:0};" parent="quBGuC4Hff8wZxjRlFCy-2" vertex="1">
          <mxGeometry x="47.75" y="810" width="5" height="50" as="geometry" />
        </mxCell>
        <mxCell id="quBGuC4Hff8wZxjRlFCy-10" value="logOut()" style="html=1;verticalAlign=bottom;endArrow=block;edgeStyle=elbowEdgeStyle;elbow=vertical;curved=0;rounded=0;" parent="quBGuC4Hff8wZxjRlFCy-2" target="quBGuC4Hff8wZxjRlFCy-9" edge="1">
          <mxGeometry x="0.0008" relative="1" as="geometry">
            <mxPoint x="-589.75" y="820" as="sourcePoint" />
            <mxPoint as="offset" />
          </mxGeometry>
        </mxCell>
        <mxCell id="quBGuC4Hff8wZxjRlFCy-11" value="confirms student logout" style="html=1;verticalAlign=bottom;endArrow=open;dashed=1;endSize=8;edgeStyle=elbowEdgeStyle;elbow=vertical;curved=0;rounded=0;" parent="quBGuC4Hff8wZxjRlFCy-2" source="quBGuC4Hff8wZxjRlFCy-9" edge="1">
          <mxGeometry x="-0.0004" relative="1" as="geometry">
            <mxPoint x="-589.75" y="850" as="targetPoint" />
            <Array as="points">
              <mxPoint x="-148.5" y="850" />
            </Array>
            <mxPoint as="offset" />
          </mxGeometry>
        </mxCell>
        <mxCell id="quBGuC4Hff8wZxjRlFCy-12" value="" style="html=1;points=[];perimeter=orthogonalPerimeter;outlineConnect=0;targetShapes=umlLifeline;portConstraint=eastwest;newEdgeStyle={&quot;edgeStyle&quot;:&quot;elbowEdgeStyle&quot;,&quot;elbow&quot;:&quot;vertical&quot;,&quot;curved&quot;:0,&quot;rounded&quot;:0};" parent="quBGuC4Hff8wZxjRlFCy-2" vertex="1">
          <mxGeometry x="47.75" y="300" width="5" height="50" as="geometry" />
        </mxCell>
        <mxCell id="quBGuC4Hff8wZxjRlFCy-13" value="opensRegistrationApp()" style="html=1;verticalAlign=bottom;endArrow=block;edgeStyle=elbowEdgeStyle;elbow=vertical;curved=0;rounded=0;" parent="quBGuC4Hff8wZxjRlFCy-2" target="quBGuC4Hff8wZxjRlFCy-12" edge="1">
          <mxGeometry x="0.0008" relative="1" as="geometry">
            <mxPoint x="-588.75" y="310" as="sourcePoint" />
            <mxPoint as="offset" />
          </mxGeometry>
        </mxCell>
        <mxCell id="quBGuC4Hff8wZxjRlFCy-14" value="displays the Course Catalog" style="html=1;verticalAlign=bottom;endArrow=open;dashed=1;endSize=8;edgeStyle=elbowEdgeStyle;elbow=vertical;curved=0;rounded=0;" parent="quBGuC4Hff8wZxjRlFCy-2" source="quBGuC4Hff8wZxjRlFCy-12" edge="1">
          <mxGeometry x="-0.0004" relative="1" as="geometry">
            <mxPoint x="-588.75" y="340" as="targetPoint" />
            <Array as="points">
              <mxPoint x="-147.5" y="340" />
            </Array>
            <mxPoint as="offset" />
          </mxGeometry>
        </mxCell>
        <mxCell id="quBGuC4Hff8wZxjRlFCy-15" value="" style="html=1;points=[];perimeter=orthogonalPerimeter;outlineConnect=0;targetShapes=umlLifeline;portConstraint=eastwest;newEdgeStyle={&quot;edgeStyle&quot;:&quot;elbowEdgeStyle&quot;,&quot;elbow&quot;:&quot;vertical&quot;,&quot;curved&quot;:0,&quot;rounded&quot;:0};" parent="quBGuC4Hff8wZxjRlFCy-2" vertex="1">
          <mxGeometry x="47.75" y="709.5" width="5" height="40" as="geometry" />
        </mxCell>
        <mxCell id="quBGuC4Hff8wZxjRlFCy-16" value="dispatch" style="html=1;verticalAlign=bottom;endArrow=block;edgeStyle=elbowEdgeStyle;elbow=vertical;curved=0;rounded=0;" parent="quBGuC4Hff8wZxjRlFCy-2" target="quBGuC4Hff8wZxjRlFCy-15" edge="1">
          <mxGeometry relative="1" as="geometry">
            <mxPoint x="-589.75" y="719.5" as="sourcePoint" />
          </mxGeometry>
        </mxCell>
        <mxCell id="quBGuC4Hff8wZxjRlFCy-17" value="display a registration error" style="html=1;verticalAlign=bottom;endArrow=open;dashed=1;endSize=8;edgeStyle=elbowEdgeStyle;elbow=vertical;curved=0;rounded=0;" parent="quBGuC4Hff8wZxjRlFCy-2" source="quBGuC4Hff8wZxjRlFCy-15" edge="1">
          <mxGeometry relative="1" as="geometry">
            <mxPoint x="-588.5" y="749.5" as="targetPoint" />
            <Array as="points">
              <mxPoint x="-148.5" y="749.5" />
            </Array>
          </mxGeometry>
        </mxCell>
        <mxCell id="quBGuC4Hff8wZxjRlFCy-18" value="" style="html=1;points=[];perimeter=orthogonalPerimeter;outlineConnect=0;targetShapes=umlLifeline;portConstraint=eastwest;newEdgeStyle={&quot;edgeStyle&quot;:&quot;elbowEdgeStyle&quot;,&quot;elbow&quot;:&quot;vertical&quot;,&quot;curved&quot;:0,&quot;rounded&quot;:0};" parent="quBGuC4Hff8wZxjRlFCy-2" vertex="1">
          <mxGeometry x="47.75" y="610" width="5" height="40" as="geometry" />
        </mxCell>
        <mxCell id="quBGuC4Hff8wZxjRlFCy-19" value="chooseCourse(course_ID)" style="html=1;verticalAlign=bottom;endArrow=block;edgeStyle=elbowEdgeStyle;elbow=vertical;curved=0;rounded=0;" parent="quBGuC4Hff8wZxjRlFCy-2" target="quBGuC4Hff8wZxjRlFCy-18" edge="1">
          <mxGeometry relative="1" as="geometry">
            <mxPoint x="-589.75" y="620" as="sourcePoint" />
          </mxGeometry>
        </mxCell>
        <mxCell id="quBGuC4Hff8wZxjRlFCy-20" value="display their updated fall schedule" style="html=1;verticalAlign=bottom;endArrow=open;dashed=1;endSize=8;edgeStyle=elbowEdgeStyle;elbow=vertical;curved=0;rounded=0;" parent="quBGuC4Hff8wZxjRlFCy-2" source="quBGuC4Hff8wZxjRlFCy-18" edge="1">
          <mxGeometry relative="1" as="geometry">
            <mxPoint x="-588.5" y="650" as="targetPoint" />
            <Array as="points">
              <mxPoint x="-148.5" y="650" />
            </Array>
          </mxGeometry>
        </mxCell>
        <mxCell id="quBGuC4Hff8wZxjRlFCy-21" value="" style="html=1;points=[];perimeter=orthogonalPerimeter;outlineConnect=0;targetShapes=umlLifeline;portConstraint=eastwest;newEdgeStyle={&quot;edgeStyle&quot;:&quot;elbowEdgeStyle&quot;,&quot;elbow&quot;:&quot;vertical&quot;,&quot;curved&quot;:0,&quot;rounded&quot;:0};" parent="quBGuC4Hff8wZxjRlFCy-2" vertex="1">
          <mxGeometry x="47.75" y="394.5" width="5" height="40" as="geometry" />
        </mxCell>
        <mxCell id="quBGuC4Hff8wZxjRlFCy-22" value="chooseCourse(course_ID)" style="html=1;verticalAlign=bottom;endArrow=block;edgeStyle=elbowEdgeStyle;elbow=vertical;curved=0;rounded=0;" parent="quBGuC4Hff8wZxjRlFCy-2" target="quBGuC4Hff8wZxjRlFCy-21" edge="1">
          <mxGeometry relative="1" as="geometry">
            <mxPoint x="-589.75" y="404.5" as="sourcePoint" />
          </mxGeometry>
        </mxCell>
        <mxCell id="quBGuC4Hff8wZxjRlFCy-23" value="display fall schedule" style="html=1;verticalAlign=bottom;endArrow=open;dashed=1;endSize=8;edgeStyle=elbowEdgeStyle;elbow=vertical;curved=0;rounded=0;" parent="quBGuC4Hff8wZxjRlFCy-2" edge="1">
          <mxGeometry relative="1" as="geometry">
            <mxPoint x="-588.5" y="434.5" as="targetPoint" />
            <Array as="points">
              <mxPoint x="-148.5" y="434.5" />
            </Array>
            <mxPoint x="49.5" y="434.5" as="sourcePoint" />
          </mxGeometry>
        </mxCell>
        <mxCell id="quBGuC4Hff8wZxjRlFCy-24" value="bring the student to buzzport&lt;span style=&quot;font-size:11.0pt;line-height:107%;&lt;br/&gt;font-family:&amp;quot;Calibri&amp;quot;,sans-serif;mso-ascii-theme-font:minor-latin;mso-fareast-font-family:&lt;br/&gt;&amp;quot;Yu Mincho&amp;quot;;mso-fareast-theme-font:minor-fareast;mso-hansi-theme-font:minor-latin;&lt;br/&gt;mso-bidi-font-family:&amp;quot;Times New Roman&amp;quot;;mso-bidi-theme-font:minor-bidi;&lt;br/&gt;mso-font-kerning:0pt;mso-ligatures:none;mso-ansi-language:EN-US;mso-fareast-language:&lt;br/&gt;JA;mso-bidi-language:AR-SA&quot;&gt;&lt;/span&gt;" style="html=1;verticalAlign=bottom;endArrow=open;dashed=1;endSize=8;edgeStyle=elbowEdgeStyle;elbow=vertical;curved=0;rounded=0;" parent="1" source="quBGuC4Hff8wZxjRlFCy-3" edge="1">
          <mxGeometry x="-0.0004" relative="1" as="geometry">
            <mxPoint x="99.5" y="200" as="targetPoint" />
            <Array as="points">
              <mxPoint x="541.25" y="200" />
            </Array>
            <mxPoint as="offset" />
          </mxGeometry>
        </mxCell>
        <mxCell id="quBGuC4Hff8wZxjRlFCy-25" value="open student credentials page" style="html=1;verticalAlign=bottom;endArrow=open;dashed=1;endSize=8;edgeStyle=elbowEdgeStyle;elbow=vertical;curved=0;rounded=0;" parent="1" edge="1">
          <mxGeometry relative="1" as="geometry">
            <mxPoint x="100" y="230" as="targetPoint" />
            <Array as="points">
              <mxPoint x="541.25" y="230" />
            </Array>
            <mxPoint x="738" y="230" as="sourcePoint" />
            <mxPoint as="offset" />
          </mxGeometry>
        </mxCell>
        <mxCell id="quBGuC4Hff8wZxjRlFCy-26" value="alt" style="shape=umlFrame;whiteSpace=wrap;html=1;pointerEvents=0;" parent="1" vertex="1">
          <mxGeometry x="80" y="630" width="680" height="240" as="geometry" />
        </mxCell>
        <mxCell id="quBGuC4Hff8wZxjRlFCy-27" value="[course is available]" style="text;html=1;align=center;verticalAlign=middle;resizable=0;points=[];autosize=1;strokeColor=none;fillColor=none;" parent="1" vertex="1">
          <mxGeometry x="140" y="630" width="130" height="30" as="geometry" />
        </mxCell>
        <mxCell id="quBGuC4Hff8wZxjRlFCy-28" value="[course unavailable]" style="text;html=1;align=center;verticalAlign=middle;resizable=0;points=[];autosize=1;strokeColor=none;fillColor=none;" parent="1" vertex="1">
          <mxGeometry x="125" y="764" width="130" height="30" as="geometry" />
        </mxCell>
        <mxCell id="quBGuC4Hff8wZxjRlFCy-29" value="" style="line;strokeWidth=1;fillColor=none;align=left;verticalAlign=middle;spacingTop=-1;spacingLeft=3;spacingRight=3;rotatable=0;labelPosition=right;points=[];portConstraint=eastwest;strokeColor=inherit;" parent="1" vertex="1">
          <mxGeometry x="80" y="760" width="680" height="8" as="geometry" />
        </mxCell>
        <mxCell id="quBGuC4Hff8wZxjRlFCy-30" value="" style="group" parent="1" vertex="1" connectable="0">
          <mxGeometry x="30" y="580" width="780" height="310" as="geometry" />
        </mxCell>
        <mxCell id="quBGuC4Hff8wZxjRlFCy-31" value="loop" style="shape=umlFrame;whiteSpace=wrap;html=1;pointerEvents=0;" parent="quBGuC4Hff8wZxjRlFCy-30" vertex="1">
          <mxGeometry y="-6.728682170542636" width="780" height="306.3953488372094" as="geometry" />
        </mxCell>
        <mxCell id="quBGuC4Hff8wZxjRlFCy-32" value="[until schedule is full]" style="text;html=1;align=center;verticalAlign=middle;resizable=0;points=[];autosize=1;strokeColor=none;fillColor=none;" parent="quBGuC4Hff8wZxjRlFCy-30" vertex="1">
          <mxGeometry x="69.99714285714286" y="-6.725348837209301" width="130" height="30" as="geometry" />
        </mxCell>
        <mxCell id="rNZZ7NwU5j-TVbbWQLyv-1" value="loop" style="shape=umlFrame;whiteSpace=wrap;html=1;width=40;height=20;" parent="1" vertex="1">
          <mxGeometry x="930" y="330" width="400" height="180" as="geometry" />
        </mxCell>
        <mxCell id="rNZZ7NwU5j-TVbbWQLyv-2" value="alt" style="shape=umlFrame;whiteSpace=wrap;html=1;width=30;height=20;" parent="1" vertex="1">
          <mxGeometry x="960" y="362" width="350" height="120" as="geometry" />
        </mxCell>
        <mxCell id="rNZZ7NwU5j-TVbbWQLyv-3" value=":Student" style="shape=umlLifeline;participant=umlActor;perimeter=lifelinePerimeter;whiteSpace=wrap;html=1;container=1;collapsible=0;recursiveResize=0;verticalAlign=top;spacingTop=36;outlineConnect=0;" parent="1" vertex="1">
          <mxGeometry x="990" y="70" width="20" height="500" as="geometry" />
        </mxCell>
        <mxCell id="rNZZ7NwU5j-TVbbWQLyv-4" value="BuzzPort:System" style="shape=umlLifeline;perimeter=lifelinePerimeter;whiteSpace=wrap;html=1;container=1;collapsible=0;recursiveResize=0;outlineConnect=0;" parent="1" vertex="1">
          <mxGeometry x="1230" y="70" width="100" height="500" as="geometry" />
        </mxCell>
        <mxCell id="rNZZ7NwU5j-TVbbWQLyv-5" value="&lt;u&gt;Register for Fall Courses&lt;/u&gt;" style="text;html=1;strokeColor=none;fillColor=none;align=center;verticalAlign=middle;whiteSpace=wrap;rounded=0;" parent="1" vertex="1">
          <mxGeometry x="975" y="50" width="310" height="20" as="geometry" />
        </mxCell>
        <mxCell id="rNZZ7NwU5j-TVbbWQLyv-6" value="enter website" style="html=1;verticalAlign=bottom;endArrow=block;" parent="1" target="rNZZ7NwU5j-TVbbWQLyv-4" edge="1">
          <mxGeometry width="80" relative="1" as="geometry">
            <mxPoint x="1000" y="160" as="sourcePoint" />
            <mxPoint x="1080" y="160" as="targetPoint" />
          </mxGeometry>
        </mxCell>
        <mxCell id="rNZZ7NwU5j-TVbbWQLyv-7" value="credentials login pop-up" style="html=1;verticalAlign=bottom;endArrow=open;dashed=1;endSize=8;" parent="1" source="rNZZ7NwU5j-TVbbWQLyv-4" edge="1">
          <mxGeometry relative="1" as="geometry">
            <mxPoint x="1080" y="190" as="sourcePoint" />
            <mxPoint x="1000" y="190" as="targetPoint" />
          </mxGeometry>
        </mxCell>
        <mxCell id="rNZZ7NwU5j-TVbbWQLyv-8" value="enter ID, password" style="html=1;verticalAlign=bottom;endArrow=block;" parent="1" edge="1">
          <mxGeometry width="80" relative="1" as="geometry">
            <mxPoint x="1000" y="220" as="sourcePoint" />
            <mxPoint x="1279.5" y="220" as="targetPoint" />
          </mxGeometry>
        </mxCell>
        <mxCell id="rNZZ7NwU5j-TVbbWQLyv-9" value="homepage display" style="html=1;verticalAlign=bottom;endArrow=open;dashed=1;endSize=8;" parent="1" edge="1">
          <mxGeometry relative="1" as="geometry">
            <mxPoint x="1279.5" y="250" as="sourcePoint" />
            <mxPoint x="1000" y="250" as="targetPoint" />
          </mxGeometry>
        </mxCell>
        <mxCell id="rNZZ7NwU5j-TVbbWQLyv-10" value="enter registration app" style="html=1;verticalAlign=bottom;endArrow=block;" parent="1" edge="1">
          <mxGeometry width="80" relative="1" as="geometry">
            <mxPoint x="1000" y="280" as="sourcePoint" />
            <mxPoint x="1279.5" y="280" as="targetPoint" />
          </mxGeometry>
        </mxCell>
        <mxCell id="rNZZ7NwU5j-TVbbWQLyv-11" value="course catalog" style="html=1;verticalAlign=bottom;endArrow=open;dashed=1;endSize=8;" parent="1" edge="1">
          <mxGeometry relative="1" as="geometry">
            <mxPoint x="1279.5" y="310" as="sourcePoint" />
            <mxPoint x="1000" y="310" as="targetPoint" />
          </mxGeometry>
        </mxCell>
        <mxCell id="rNZZ7NwU5j-TVbbWQLyv-12" value="enter course ID" style="html=1;verticalAlign=bottom;endArrow=block;" parent="1" edge="1">
          <mxGeometry width="80" relative="1" as="geometry">
            <mxPoint x="1000" y="350" as="sourcePoint" />
            <mxPoint x="1279.5" y="350" as="targetPoint" />
          </mxGeometry>
        </mxCell>
        <mxCell id="rNZZ7NwU5j-TVbbWQLyv-13" value="updated fall schedule" style="html=1;verticalAlign=bottom;endArrow=open;dashed=1;endSize=8;" parent="1" edge="1">
          <mxGeometry relative="1" as="geometry">
            <mxPoint x="1280.75" y="400" as="sourcePoint" />
            <mxPoint x="1001.25" y="400" as="targetPoint" />
          </mxGeometry>
        </mxCell>
        <mxCell id="rNZZ7NwU5j-TVbbWQLyv-14" value="" style="endArrow=none;html=1;dashed=1;" parent="1" edge="1">
          <mxGeometry width="50" height="50" relative="1" as="geometry">
            <mxPoint x="960" y="420" as="sourcePoint" />
            <mxPoint x="1310" y="420" as="targetPoint" />
          </mxGeometry>
        </mxCell>
        <mxCell id="rNZZ7NwU5j-TVbbWQLyv-15" value="&lt;font style=&quot;font-size: 11px&quot;&gt;[course available]&lt;/font&gt;" style="text;html=1;strokeColor=none;fillColor=none;align=left;verticalAlign=middle;whiteSpace=wrap;rounded=0;" parent="1" vertex="1">
          <mxGeometry x="1003" y="362" width="100" height="20" as="geometry" />
        </mxCell>
        <mxCell id="rNZZ7NwU5j-TVbbWQLyv-16" value="registration error message" style="html=1;verticalAlign=bottom;endArrow=open;dashed=1;endSize=8;" parent="1" edge="1">
          <mxGeometry relative="1" as="geometry">
            <mxPoint x="1279.5" y="460" as="sourcePoint" />
            <mxPoint x="1000" y="460" as="targetPoint" />
          </mxGeometry>
        </mxCell>
        <mxCell id="rNZZ7NwU5j-TVbbWQLyv-17" value="&lt;font style=&quot;font-size: 11px&quot;&gt;[course unavailable]&lt;/font&gt;" style="text;html=1;strokeColor=none;fillColor=none;align=left;verticalAlign=middle;whiteSpace=wrap;rounded=0;" parent="1" vertex="1">
          <mxGeometry x="1003" y="420" width="117" height="20" as="geometry" />
        </mxCell>
        <mxCell id="rNZZ7NwU5j-TVbbWQLyv-18" value="&lt;font style=&quot;font-size: 11px&quot;&gt;* [more courses]&lt;/font&gt;" style="text;html=1;strokeColor=none;fillColor=none;align=left;verticalAlign=middle;whiteSpace=wrap;rounded=0;" parent="1" vertex="1">
          <mxGeometry x="940" y="490" width="100" height="20" as="geometry" />
        </mxCell>
        <mxCell id="rNZZ7NwU5j-TVbbWQLyv-19" value="log out" style="html=1;verticalAlign=bottom;endArrow=block;" parent="1" edge="1">
          <mxGeometry width="80" relative="1" as="geometry">
            <mxPoint x="1001" y="539" as="sourcePoint" />
            <mxPoint x="1280.5" y="539" as="targetPoint" />
          </mxGeometry>
        </mxCell>
      </root>
    </mxGraphModel>
  </diagram>
  <diagram id="_107WiuJP_ZRxQIg5DUl" name="game01">
    <mxGraphModel dx="1061" dy="726" grid="1" gridSize="10" guides="1" tooltips="1" connect="1" arrows="1" fold="1" page="1" pageScale="1" pageWidth="850" pageHeight="1100" math="0" shadow="0">
      <root>
        <mxCell id="0" />
        <mxCell id="1" parent="0" />
        <mxCell id="nqdka4csMS8jdWt01afp-2" value="&lt;b&gt;Use Case&lt;/b&gt;:&amp;nbsp;Hit" style="rounded=1;whiteSpace=wrap;html=1;fontSize=20;" vertex="1" parent="1">
          <mxGeometry x="313" y="10" width="225" height="60" as="geometry" />
        </mxCell>
        <mxCell id="nqdka4csMS8jdWt01afp-4" value="&lt;b&gt;Use Case&lt;/b&gt;: DoubleDown" style="rounded=1;whiteSpace=wrap;html=1;fontSize=20;" vertex="1" parent="1">
          <mxGeometry x="313" y="2212" width="225" height="60" as="geometry" />
        </mxCell>
        <mxCell id="nqdka4csMS8jdWt01afp-6" value="&lt;b&gt;Use Case&lt;/b&gt;:Split" style="rounded=1;whiteSpace=wrap;html=1;fontSize=20;" vertex="1" parent="1">
          <mxGeometry x="313" y="1112" width="225" height="60" as="geometry" />
        </mxCell>
        <mxCell id="nqdka4csMS8jdWt01afp-8" value="&lt;b&gt;Use Case&lt;/b&gt;:Stand" style="rounded=1;whiteSpace=wrap;html=1;fontSize=20;" vertex="1" parent="1">
          <mxGeometry x="313" y="3312" width="225" height="60" as="geometry" />
        </mxCell>
        <mxCell id="nqdka4csMS8jdWt01afp-10" value="&lt;b&gt;Use Case&lt;/b&gt;: Surrender" style="rounded=1;whiteSpace=wrap;html=1;fontSize=20;" vertex="1" parent="1">
          <mxGeometry x="313" y="4412" width="225" height="60" as="geometry" />
        </mxCell>
        <mxCell id="VbZC9agZ-9ivzSbTjUql-1" value="" style="shape=image;verticalLabelPosition=bottom;labelBackgroundColor=default;verticalAlign=top;aspect=fixed;imageAspect=0;image=data:image/png,iVBORw0KGgoAAAANSUhEUgAAAVEAAADhCAMAAABGFXaxAAAAAXNSR0IArs4c6QAAAARnQU1BAACxjwv8YQUAAALoUExURQAAACYmJq2trcvLy9jY2Nra2tnZ2cbGxnh4eAkJCVVVVdfX19PT08jIyHBwcAEBAQsLC3l5ecXFxWRkZDMzM+zs7P7+/sTExLu7u8PDw/f39////5WVlQwMDElJSbi4uN3d3ZiYmAcHB52dne/v7/T09HV1dQQEBDAwMOfn583NzQ4ODj4+Pvj4+Dw8PF9fX5KSkmNjYzExMUBAQOXl5ebm5tDQ0B0dHaWlpUhISGlpaRUVFYGBgdLS0t/f34qKihMTExwcHLq6uqmpqZGRkcnJyT09PQgICNTU1IODg0FBQdHR0aenp21tbTQ0NL+/v/v7+01NTW5ubo2NjRgYGCAgIJCQkN7e3np6eioqKre3t66urs/Pz8fHx2VlZQICAoaGhnFxcQUFBczMzPn5+Q0NDbm5uerq6gMDA1paWvX19RAQEI6OjuPj47a2ttzc3Kurq/39/eDg4CwsLBkZGfLy8vPz89XV1R4eHqioqHR0dO7u7qCgoOvr66KiopycnBsbG05OTkxMTPr6+qampomJiUZGRrS0tCMjI/Dw8BYWFiEhIfHx8cLCwpqampSUlJ6enmhoaKysrC4uLu3t7eTk5FtbWysrKycnJ/z8/Nvb24yMjBISEgoKCjo6Onx8fOnp6SkpKSIiIm9vbyUlJTg4OA8PD0JCQr29vbOzs+jo6IeHh1BQUPb29nNzc7CwsK+vr6GhoWtraxQUFLGxscrKyo+Pj8DAwBoaGlZWVkRERDY2NgYGBrKysn19fYCAgKOjoygoKGZmZuLi4kpKSjk5OX5+fr6+vjU1NXZ2dh8fHzc3N0dHR09PT2pqaqqqqhcXF5eXl11dXVhYWGFhYWJiYmBgYFxcXFFRUUNDQy8vL1dXV0tLS4iIiDIyMn9/f3d3d7y8vEVFRaSkpDs7OxEREYKCgi0tLYSEhCQkJHJycnt7e4WFhVNTU4uLi2xsbD8/P2dnZ1lZWVRUVF5eXlJSUpOTkwAAAJiUPswAAAD4dFJOU/////////////////////////////////////////////////////////////////////////////////////////////////////////////////////////////////////////////////////////////////////////////////////////////////////////////////////////////////////////////////////////////////////////////////////////////////////////////////////////////////////////8AKM62NwAAAAlwSFlzAAAXEQAAFxEByibzPwAAC2BJREFUeF7tnUuS4ygQhr1mzcIR2khn0zF0G47BkgvoBESw4R7zZ4Iedj16LGFXu+v/esbCgEEkmYlKFukLIYQQQgghfwduHvu+H9PlYnCQ468gjf0Yaroxduqu12vXDRd/vfY4/Armbhqn7jnq46Yer7bvPA6mi5r5rxO63smYbX3fFDuNGYdZJRqKjuY4TmPMl3yd5e0womeYSZ/yxeMwB7w4KXlXrjrahCG6WFyeu879NY3iCXLNOopTibpR56tKdO766wR1zXOHHuzU50vsJvUJdoaHQPH8lOl9EVlGVFJjN2JA4WIxKPkPmoLRz2c8gu2neUYLqo1BrT4PA5Sxg6S9ZEd06LurqOwEOea+w9y+NX66QhPnYfB5xoADRumm2Y2TGyYHrYLqnjBCh6mZpr4IqeroxSYoJCSa0clF/k/d1E+oKfYh798b240yDB2OjxjqFRIdLmN/iZODNepQxS8covrRQpXoACHDkyI/dElXq9SN0GRMqkzBe/tQkMsQUhfg17q+h47aKeaxz3HKQ3fVoR52axDQXqJi9aYbfbaa7/pRTd2oX3Eyb/V03ppZh3PtQuquNosTgI4WibrUGZS54+vEpqPZQeNn53Lors5eu14ajZ16WPiG6EwP4To/9d69uUyxDgUL9YREB+dHLBJVR+FH7TQll9a163HQQBVPwCIuDGIKcCadXqhOOmUXD88ia6KRA0rfXKQBTrQbu4RrHFlGutl2c+6nHHHJY6Rs0lEfIpvFBbsQjAkmWOQFY60W4OKqlkoeqqOCCcEfnsG/BItxOuN0WM4GmzE4b5Atrk7yar3WZJjG8Qsz8hE4gmtNkiY4I1ZACCGEEEIIIYSQdyK+9Ved7THX47dLlTwe/97qnySdvaeZyxMCZCHJcwtngERp9XtO62h9ioUsUEdbQz/amgY6OlGie6ijraGOtoZrfWu41rfmvB/lX6G3nLf6OL/9A41NMTM1jBBCCCGEEEIIIaQRedY9of+T/f6c/HGzjgl6H8umf+GWazbh0Hakh75nsnGr64b6fJBd7wbaWLNC+gfuEOaUXiHRnfK50l+Oyx1anEJNraJ9N7LfVCGHYxJ96Hsml3wuxp5dTTiXksMbJHdyfFcldSmuOw9zOmr1D3wXalNIg/Rp4xBVfj7GmGJUD2DiKka/V+Z3whnItAzjqI4+ZvXozgZxps55lWh2NiULJUV6dwZ7h/tmOJ+S6ukJiRZ1ymLImnJIaQLHW+NVu3ZFWq7aOIxDjzee/IMj/a71rWzLWmu9ujqA6Uv6qNUvfjSHIQ4qGwsjVqN1sHCJ/7Khl0VVlC6tEq0ntZPoIu4Vaaq0jsRd69KzftRJz5KVExJa3Ut1GZ/DcVddErvqyNIOv6iuTWmW9PxV9aJZzsSkHzyto07QHEloW2tiwYksqigXNXTrVO6WI39v9WtT2vrHrNLEmrUmPsn6pPqaddv6mrjrcE2s1TUhWfBpWH0l60V+VCX6hY7ul6PdIvVWuKqfwmvW+kVHs/cmBq9XbwEJCWuyc56HXdBPk+123i/RUad+FBKF804JV00iQvQci5GvmvnB6N+RwxJ96CmdtYtc/92wuFQc9f17c/Sv0Itp+OeNLU7d7f6We1+yXZcFQgghhBBCCCGE/Ba271eIUm7vH+eh+6O/Ae4LbQ33LreGOtoaxoBoDWNAtIY62hrqaGu41reGa31r6EdbQz/amvM6ylg6t5xfmfSntMiK/NoYIYQQQgghhBBCfit1DxL5wMHnl/6Cu3nZev/d9wj5Z+b88J67m3v4P3HqLkSwbNL9hB/aZXp8X+h2D9/F/gfOPUSTs4bq+IKbCD6v42wMCDnxqRufdLfVWlh2abuYuIMlO3SMgrIBWjbnivnLyTgcHF5QL3uDGj8j0cO7wYuOunnqrk9zWEkC7ohgoIwgYPo8lNO5aEyRV4aEF/PXAD34QNBd50j+jEQPRyxQHfXTVON0PAMx6mwl8oiRGAsSLCKZnKJ1yW97p62UQcyaLHGXDAQPqeqcv5oTEQtEkr7rl5Fl401RVhzLly4WqTIqSZQslBXlWqpLXIhahsTt9KhNyxkGiNAbiCsEG4Lxye6im2RnfVCVXSJ36OEueNTW89qhJDTLIXF/Mlv15dy36p+c+1L9rI5e7Nx1RUuhH8XOYIVVPQwS2jz0qmZJmY7ail3KyUAR76uvrBKFLSdgLj6ZgH8p+zWkSTZi6trWEgFJY6FovJkNbV0SWXqWIu359mTUXejHUL0EUHBo/ZPqGjxxLdvGVc73ANv39R4ynQ+18Wc2iRZZoLeUvBXR1pUp+AzVta4oZI3A9amOvorzaz3GMU9lepqzSlSvLcVhihcV9yoagxdxBHJFDbvY6Sg0Bn60OIKXc1xH9889LQbYGpnuRWJiYE4k6i5B/IxGkREvgSW+mD10V5K1DP/WOX8lZ/3oc9F1zcvyjfUBBo538uRFuaeQPZYoOVqD5QG1nFFkppH09meeSTihoz+iAX8/h/1oDYFGPlADGBJCCCGEEEIIIeQXUX9TiVTs9r3XMbjn7o7InbaN4d7l1nDvcmsYA6I1jAHRGvrR1tCPtoZ+tDX0o62hH23NeR0dqaM3nPej80/sZviLCdNJHSWEEEIIIYQQQgghK2l4u6d0amDgXHeoP4uDzT/4+/UmJRmOC7KnOzjZgpw0/f1N1vDNDl6zBJJG22jsy7NZ92vlVB9NquEjnsTRWDqP3cMPMRjZJ2tjMj6kaK0xyMDL94peNoF/zrr9MkS0s+xu/0CIy/i23eFbXiP2IZ7a7F3+AxLkAtIsYUbkMTYV1HfiqnxTZT3xklgV8J41+gZqlITI9gFt+D+4GFZpvGLvch28kYgt+qHS5yqucG/7WZyC1AxB3IVkib8oz1dqGT5v0GgOyCsSxWsW08/qKWAISQZZ9odrTyXEgYJB11Qr/BILYh3twzzyfb0rA4DVVR0t0S2WYeU43FmsOAnYMkYOz6Db5B0EC+HiVNcyEaH4YSS8tTIrGvoBnWWNFIFa7mKQqhvEzW7ejoYN+wYbqkxbxID4EzUei40W1iHy0K63nt3dD0N6DYgTUCzhXVREGufFlmAaUE3RT6hnif6iwYnES2t4EtU/dTPFuUlVZb8ewVxqqiFOgimg28M6Wv0o1plqlxJ2QZuUaA17cZdALBCURGmACdano780vS3wkFYRhUKLYAg7t2hSCUiGEbic0XLWfnQCrBh7WfXWmDt7iZYYHBufhXJBqoxL+lYVkOguOq5Pqkv8hKRXH6f9qITl0ZRG+JFuJJzPzRperycg0SWOiPJlz9ski0R1zlOQbrzdaZfE2VBplerwKYuO4m22Ri4pkG+WdX0fCOZejXbhhpZzl8ASerJbliS0jY/RieD5l8XpuI4+8NyTLj2Yz1xj3Shqnp9Sxi6hM1aJBl2n4R22MigfnIisTjcSRR7eSCU4D7yu49st8NWxtwN6XA1Px3VIog899wRhWic2upfoqqMQyW1TqO6djyLIRWJYzKwT74jFyjtYnUi0htjBfLmM6lj1UYaVS5xEcKhe5eqcJHYzuFv227D/mZbjOvrIMyU2DVEGvx/Ken2Itf5ucsQN6qSLvqnPgMSAfBgii4OU6YkHjVUU0bqYAUwPrgCf0UpRDRPJoVxbbI509a3P4LAffWyvSHYa1yTvV/U10sn9Wl+qqzikSqmHnFL/pgxv4DOlTJtAUnK0dGlU6pesZajPDUxaV43HGa4P6OjfgS1rR17vCDyFJzdPCCGEEEIIIYQQ8ht4w3tPT8WMJ+9iM5bOHdxp2xpGLGgNdbQ11NHWUEdbQx1tDXW0NdTR1lBHW0Mdbc15HeVfobeclug77md6Kv7+cThCCCGEEEIIIYQQQgghyuXyH9JqoLlwBibHAAAAAElFTkSuQmCC;" vertex="1" parent="1">
          <mxGeometry x="257" y="150" width="337" height="225" as="geometry" />
        </mxCell>
        <mxCell id="YysGY_BepTI40EByLGCr-1" value="" style="shape=image;verticalLabelPosition=bottom;labelBackgroundColor=default;verticalAlign=top;aspect=fixed;imageAspect=0;image=data:image/png,iVBORw0KGgoAAAANSUhEUgAAAYEAAAFuCAMAAABQlVRBAAAAAXNSR0IArs4c6QAAAARnQU1BAACxjwv8YQUAAAMAUExURQAAABcXF5ubm87OztfX19zc3LS0tE5OTmxsbM3NzZGRkRERESAgIJSUlNPT09ra2sfHx2lpaQICAh0dHczMzP///+Pj49DQ0Ofn5+/v71hYWAMDA2VlZeXl5b+/vxYWFiMjI8LCwvHx8djY2P7+/n19fQYGBhwcHMXFxfb29khISIyMjMrKylRUVP39/bm5uRUVFQ0NDZqamsDAwDY2NgcHB1paWuzs7Pv7+0tLS+vr6+Hh4R8fH1lZWXR0dKOjo6WlpQUFBQoKCoCAgJmZmSEhIY+Pj4uLi0xMTJaWlnNzc2tra6ampp6enklJSZ+fnzs7O+7u7unp6YaGhjg4OD4+PqSkpDExMSoqKpCQkH5+fpeXl1FRUXt7e6Kiond3dxQUFHFxcaGhoZiYmPX19UVFRT09PfLy8t7e3i8vL2NjYwEBAYODg29vb7i4uA4ODm5ubvPz86CgoFVVVV1dXaurqwQEBGRkZCQkJEZGRvz8/O3t7WJiYhkZGaysrF9fX8TExPj4+Hp6enV1dQwMDGBgYLa2tigoKISEhDk5OdHR0by8vERERNbW1lNTUykpKa6urggICFJSUg8PD4mJiY2NjTc3NyIiIgkJCXl5eUBAQNLS0sbGxoWFhXZ2dldXVycnJ8HBwbGxsQsLCysrK/f397Kysvr6+lZWVkJCQrW1tWdnZ2hoaJycnPn5+dXV1SYmJkFBQTU1NVxcXLu7u4qKivDw8D8/Py0tLcPDwxISEl5eXrq6uoeHh4iIiKenpzMzMxsbG9vb24KCgs/Pz+Dg4JOTkywsLB4eHr6+vm1tbRoaGjAwMDQ0NE9PT01NTbOzs8vLyzw8PLe3t8nJyRMTE4GBgVBQUHBwcOTk5Ojo6I6OjpKSkr29vZ2dnampqdnZ2ebm5qioqK+vrzIyMt3d3WZmZurq6qqqqiUlJRgYGC4uLsjIyK2trdTU1EpKSkdHRzo6OhAQEH9/f2FhYUNDQ3h4eHx8fFtbW2pqanJycvT09OLi4t/f35WVlQAAAIyXGHoAAAEAdFJOU////////////////////////////////////////////////////////////////////////////////////////////////////////////////////////////////////////////////////////////////////////////////////////////////////////////////////////////////////////////////////////////////////////////////////////////////////////////////////////////////////////////////////wBT9wclAAAACXBIWXMAABcRAAAXEQHKJvM/AAAXRklEQVR4Xu2d3XXjOAyF/c5XqyM14ApYhNrgOxvJsw6bsY7L2HsBUJKdxI4TMfJm8O3OmCYlSgQIkP6Z64PjOI7jOI7jOI7jOI7jOI7jOI7jOM6OhP54Bm/pcJjweByDNfxj5B6Dn+zJrxKO3el4PHfdcJiOx1N3/Dc9kN+6E4wQ7elvko9dwd+jmj51b/+mBy7dWzkMpw6p4LcJb5j9eDidMx4G80CIl0vP+tizOo8jHlJ/uUQ0T5f+MvEJXPdHKKcTBzMe8XcZL5eRs7KPfT9EGXKI/aVv5J18PLHn1J1pevNAOXYEafHSjXgeuzf+RfqAuq47nfCHLvobTN3FSocJI+u6Y4ZJOE78GThNSZvxovOYSjzTtLMHhtNbPowslxM8I3GSTud0yBe6BYd1x8QD/wojJ1pJpeTD5RSZmicM+Dgcuxi7Hs1IBTAA88Hm4GLCRXqvWajkMmBpyDR+wmzAIjF2l2maepksE5v+EvSAzPn+EEpO0xueFzy5dCV3I3Yr4zRFuqUBMPE4DZPN6OqB6Y3hRzMPMPnIPcLIG2QlDqiH/Rk40cMwXPCQR+yJOnrk1Ie+SwUekBrQxAO2Dhhm2rE7vY3xRA+gfThzjei7mBEahe3TX/OARDkdMSInnPuJy5/GgHjgdMbIbeybgwhbeQC7UfyNOiw6Q70rxCAesVjhaZEdkh72h2CewWzDaiijxtxnDFzogSyO4OyP3BBuz8oDJcZLd45xwHr7FvtTd+J1y7mTnRpesxxZiSXKDvtLYYC9xYXpZ0ynUx+x9XkrSwzwhcKFg27lgbrJqpn+lGV5PuJlIi+piy9cILtQrAi6NVO//BkmmP+EPQ+tDW+curGcLkE80MNBXAn4YqEFOde5jF2A/oci/g4hi8/1JRuQSjzm+bC/BEaFzTfGJ4WMscsDkgDHXMf++4Ri71c4O1EQm41ejTtfApvkP5XuHcdxHMdxHMdxHMdxHOelKUd+JOncYzi3/I5j0o/HnDvw+xXtSPI9CeceU1sP/LWvZDWgsQc8Bh7S2gNtvpnxl2iehXwv9ACPgb3xdWBvmmch98ADPAb2xteBvWmehXwv9IDWHvD3hR7R9n2hHCePgQeUsc2/rXQcx3Ecx3Ecx3Ecx3EcZ0d2ElG4Yotb+J1hNLjK9z8jCxl84Y7kOJUO+YS0wbu/YYq/8DlHi/fyv/9Jfez7cfyCEsU09vjv1sghzZf9wbBCmZUYyvgLMkh53F7+7Puf1GNuD1/xwBCHnEu8OTQtop4DNT+/Rx6X75X/oJt75LXU5EvEQDiE+SbSPOilLsxFK6hlbIrW1oDMY+UcqbQqzK3Mt7Wf+XH1Vz2uxCnX9kZBUBDoc7+vEANDnOI42kxINrExwy3NhAGliT3miXUw1hDNA2zluZnCtiNPkXPmzwDlDPacYhwjDmV9Qh07QJ7Hs8ILTmyLaOTxoNe7CYsnN6XgMoPZ6BViYBrjlCabChb4aYwpSZoJcZzSMGJRhD0GHAc7DeOQEhyHy+A8lkIo7CIlWQtq9sgwuZ6RqPk5DhHdoC+cwf7EA+JyOHmADwoSBJrQi56P3p8ayddBtjWtvZeIAZooTzKvawxkThGZyrqrSWgVu8r8Z1QA3LrOdj2pRDkV1MUk0JIykZHcAvyUYsaI0TU8wpkPG0gMyAl6JcxJOVf40qr0PcKkfTeNAYQ+5xooLImFl9LMIBPNTF/XgZAHTlqaSXrAXSJWADdL8EXAAWjGVJK6xQ88drJO0EtCLxhigrFh2jQGsTjnf1jFgFwkMw1dW6QG0wxWGETiXDIb1jr0E/V09I3STR3Cq7o3YMZVg6w8vhFzDJRpGiSBa0kvONfNDGJjtUw1IxI47haGxVDq0VPEqcOA6FDDsAkJSCr5fM7+s+G4SKAXegBe1hiYPZDRIQyjMSAekHxwEwPa0UzAxSa9w2GYtLTUHaROrc3bkrqEOk04UietWAiiLcZNY+CL6DBtsPaA6ZVD1hhgRShBDYYiDtLpgyxNy2rd7DxQfYEowb6GQ9QYwHapxkCMEgd2lsaAnAU/LBZpsxJjear2l+tZaTueXwcwfmQnOUnNCANlrlYwSWErQqKgCcGD6LUYwISOzAAFE07cVmRPxJEhsmWATOOwOsy4xABW9mRdMxOjZ1xQYiCoB6RHHUDtZ2OwYC3dvkYMMJOLIbihlKSKtRYTRfI7MwkK3ISyUk3Ho0baHVtLFGQQSP+opAPrHgYbb9RwIcDkP+CBSw72uXaG7HitQxyfe3pAerRM1GohXpu86TrwRQZs/ybJ5HgAkl4TCqUMtEBB9tRJU1ipj0ypLEqdTanAaq20iYXlnL0MOCoc0BkfpHLuLxWekVgf5Gp8Yu0tpuc72sTAc+/Mtdh0bzF7EVPb39g7kDuttB0hPTd63Y1uzN13Tr/IFn085neucpfb3anjOI7jOI7jOI7jOI7jON/h2fdG/0XkuyDNGFzZ4yFx+V3vBjz7Gdm/iKuc7Y2rnO2Nx8DeeAzsjcfA3ngM7I3HwN54DOyNx8DeeAzsTesYOLf/wuv/HP8loL2ZutFKTaj/HNf5HLeR4ziO4ziO4ziO4ziO4/w5rhR6nAeIEtvG/OZv8mVV7vqUPAtcfUxI06TzJT2trVAeXPtrtJiv158Tm1hSIz5WN541/6glhP8/vQWqXam0VPiiuoVKsgmLsuBPaK2xFaZj058JNXW6G6remehphfT5LBM5tKfub3PFm7YaWyEeuy5quQ2wdanqoMF0QtOsPGoqQ6IiV1sPpWQUMWo8UMEU5VDkAY1yVEaXGfkZfxc5h7VsDlQj1UPRqNqmgGU9mV0/mZpaamyFeO5OjUWSigikSSpSzTKU8Mhin0wlUBIh8g3gdJukFSVqoLFypPYc4LGZBT4bpDv+EZU7cHUGZdh6zYCiCSwivllbP8qLn9MwBvKxOzaRKlxDbd4AYxWKA+IvsTnyDpIPBzdfn/qqQVX9ECBZlAMPQeRj5RCKj+q0wZETooKWKTiKXYlgoJ3BC/CMoFcBFCCEF2BHSvyGQmHBJ2i4DpTuNK9aISO0dago6E8MLHUHFKx1qWNJbZKvWmuXimqEMZ3jD1pFSxdlsU02fUygx4lLRNLL9DBNLJNYvNBDUsg0fcwZy20Iiyj8ah0wD+hKTrlHTSirtVpYbvqjUssYwCLcne1+U9/3er8DCr0MUUpqKZZkJhQcp4qHeURJ6j4qzSTZj2AUsAfzApIFa/VaopmpWM2s82rPF4G1GgM8RixC09MDPJDCvfrDCMthtQ+zIJ0ux75bqyNuWk4KUpLO5zoO6npEWzDvhcKEheBCc4eMWaSunktSJ1WrOlbacatSlaNf6io629UD1IjVfuoOyeRjC6an1Ij9xIYWAyYdS5YYUNNUDyDLUaU7aQyIXqZhfWqqoztUNvlWNm8ZJ+9eS0td9eCmrF8PIA7eNr/ACt1p0jpFhq+/w2EzHDbiJh+5h3rfOE5ykczxj7KQFWsMoA+JgRLkXBPEnh01X0WXHs58vYVVlHyF1q8H5gE1AovwVES0lytowVNaBUsi9pIwDFoS6mAYLJUlccXWPE0PYFmB67jGoIQdLPaSiEHsrqROYmCUGGANf7uAo8LSXwrcjLWJ8vvI5vw9B6zZeOWtssm3MfCA1jHQGsQAUrTMSySIHgZnbYCtZd3BZmfsRWN4aZ2zEBYnrh1Yd4KsICiWrAUuqzUGEhYbdKJK8HQ0mpHL5BRZluBibExxDYuBJz3QIgaeVHz9CcirdQ3hIjKvEnVFWFrnkqRiWU+YjFFASfIyyzxKC+hOjpIiT5VKOVWr9EjWsUba5Ign34bR/Lgt5XjZvM+/SzaRfMdxHMdxHMdxHMdxHMdxHOdnlDd/d/oR6Rit1ILf/ITm/0pjbZVf/JTy/4orPO1Naw94FnpEc505X4kf4DGwN74O7E3zLOQeeIDHwN74OrA3zbOQ74Ue4DGwN61jwD3wiLbvC2X7pzrO5yT9t1qO4ziO4ziO4ziO4ziO4/wlTA3I2Yt0emv9+QC1N0xo4wvY3VQdGZVAeT1UIGoLfvIJTZ71kz6iatCZotk9Md0VpsQkIkyCSca9Gtvp3PzkuxLxrjhPbU3jUKjJ9LU5Y+pYJqsFVhqMO6OSYIYKRG3BN74vZAYJlF+6Nc7yPExRg0BtGuL4BUNSJVQ8cKWSeDfUfo8Qoyh3CRt64NkYSJRtxZ0U6lsBEcGidBZVsvg4DHzCFv4pNa9QLStQb5XpaJHZC3GaRlGYE0WsSfX+1kpKqn35CpQJozNrUa9wG579rkShkvAAo+RBZIgHigrT7CIaRw3jGKdEEeI41lbaFOeJPuuAP2uRNzgtog6Zhq10rxy9mmGvk4ZwL1XBbtss9NT4Bp3Dck7VBSy8qVkQkUFBqoxhgtnVQVgRxNAF98+4YKoRmVFmLGtVD1T9RbISIn0BMmcfHzfMQhYDKU5RNeULS5J7Cwo3w0fCidMgrbONDyEn5BLzgNluFvuET5iOUK01vPerLCTHFDxT2+vfy/hEd/SKNN/WcquZdXLpMqEopcCSdLS0LqXDgJLs0IKU5jpJgGFAQRONlHSuYTW2I7fMQrYO8NcVzAMsqQdw6Vulf96a7S2raTJTj6obLh5Aq/qJNWpRPZ73rrv8aw9oa5Kz1jGQ32lDyw3e3CqsPand893Schwsaz84IXVSWtWxZB6AFbSVquI2+zbNQjcmvg/VZ6nKzZMm295Q/TPYLS0xULczXAck9dgsZ7rSg80D6GSJAd3+X63EDTQ+vwWietkMbZmFnvIATInFlcK4eGIK55rKsUDwgGXvKLYMQX0iZ4iqbmaml6dYq5cYSNqKBZvnr3P/Oh52BalzMdWWHnh2L7RkHC1T3j/K7wQkJFQ81HxsrWpBUTzmPlXP1RI9ILM9UV8c3bBrOXkx+/tlYDfWobjhOvDsd6f5cz31V3W4djBD8hEve+EBJs+aZ5mkMWvsN3jkp2MSDpBG/qgPtq7Y/Ax8Lsewbiia4OvbQvTFVpNtU7ZcB37vt5ieob4Oe6VXA2u2e19I5+ALUn96wt7fezXCza9bOI7jOI7jOI7jOI7jOI7z/yIUe6/f+ZSrL8ttzqt+PvBKNFd8fc034F8I1xfam9YeePqbu/8cHgN701pjy9eBR3gM7I2vA3vjMbA3vg7sjcfA3vg6sDceA3vj68DetH1nTv5RjHOXJzQZHMdxHMdxHMdxHMdxHMf5n6D6Ps7XaPE956Hdb/JllUm54iMZi3d1YSBWTijevcNgqle/wVp5aituPiPbsv9kem5rSpXlKaaBBhYlGyOIWpHcFoooL8d+wHYqJ49pca3158RhOB6t2JxyXzkrmI7jNA4hpHdKc2uyyvX9Ck1iYNaZC8Nb141a/jmZmqNyt6HknCR/5oI6uRpVkKeU8CSgqiZXttfpoB4oOmJR3Ap2oJyBhMyeeIaqBrKiveDMdspaC3MMxGPXUWtsI4Z+HHuZ5pl5pKcNEx56mjQjyeD/cRxgY6sT5bOxt4SD7DObHs9yoGgaDoWxC49CcuopmokqkdmkCiLY7v4/pk0WknUgv53Opo24EUwe6gHK1FJyl3W2DrAR6YVGljoWML8yqi3MVV2uapaCKaaQRQeQUo94grOZo+AZZCF0lw+5Lt/NeLdkbYB9VyJ13dx3yECefFQ63C+tMNlFvWvTvsyqVHq1DtRhoQvaWMq6DuDveVZnZKysipgq8iid4W8R+x2Q1HA6a1d8dIPXJXXwUifj/LTUMgbCdO6OJmqYkBc0gUhJBpt6FHVKo6qX+0AC6ZEK5rrb8ZuRF31d1tVEuogpLh7A4jBaDMD2PN4sTkKh0qw8t0brA6ejiilMBcQX5LYiS3Kry03rPUS28mp5LqEOeY29hLlOS9pzvdUtmdeBHE/dWQdIn6sdMlZRKy11VyU7eS6tqFlIZqp5YI6B9x6gOibVxLVdH+2okGD1MU5JY6J6QF1sqodY7nGInlzhXWnNden2ptcljNhKS10t4Vo2gTZk9XogxHP3dj2EH2E/JXAVAzJhyUpdPeiwZL7PL9F1LyTKsJJ1VHtRY6J6QPeGXFEOsgLMUtfNaBID6+/MhbjZbhQBMmB1xMRbqXxjniJTyITKWEwzd6Oow/qKA3k4Ff5hY8xErYN5Y0LlFOCBgh6xAmMLGnEupzRW4kKVfYkQNm9vn2sax8CmTEie2DEi5epdcyXmYsI622iiJLtRqRwzrNhTvHdEUOhxXIISMrPkdx4fp9gjGrSVEcNT4B+YZkC2vl0HtqdRDDS5bV0kAEq86UCDWZVekIVgdZJ8WcRuCCWpA3IiHufj8RdiQKmN9p3CWtWUqkO7JeXY/New/hDZZPAdx3Ecx3Ecx3Ecx3Ecx3Gcn1Euvb/f+oD0tv2nAgup3Td3/wzNNXfdAw9whae9aa4v5B54gMfA3ngM7I3HwN54DOyNx8DeeAzsjcfA3ngM7E1rD/j7Qo9o+75Quch3yZ07pEvL90Ydx3Ecx3Ecx3Ecx3Ecx3H+Rcr5aV0J1Yfjw1UJ8Mk97h+wPv99b1cX+PBSg6oOhamdxo0q9WzL05/QiE5i4kCpScPiQGUwVaixYz7BpJw+YaW/LMqJ1zKigSo3pjV2OEQVj6Kiij6CVDWj5sL2qKbUtjz7KSWVE1McKTsWh5IG2IJqohNqS3lwd7CxlT4CHdr5cO6UcJGr0RZqOdWKbJdaWaRqBIKVOt3PqZcSZomwDXn2k3qROaT4mBnMFHcsA9wn3J2cSwzoJA7vlGSGdx/nmVAmWQnXrRTUfg4GOHfcJgae09iymYbhmthb0Ip52qF6uWGDEnyUv4KNB5RkDFInJSqbTdR/4nOcXtBZ7SJPA6KMrcSuiBSl8nPoTP6TObASxrR72giEHrXVhCYx8Nxvs1qOxSwzDyS9p1ljL4ymJbkAQw2iHxcwlklEyayOLkjjaK1TpFYfjJ9HisqxQ+Q8nmHGVR1eKrOrBwpPxDPaZ5WE6KPZG1vA2aI+eAGduZWGKFN/mmxNXFKvKUsvqF5iwhmYm5mrbEb2YIZhZ9pK7WjEQLbZj7DoYVsczBWHiUB6MolFluxyy5xEP1YCmy4EBDdt426RhWwdKBOQopRkCEtdZdEQZTIAliGGJQfcYtK72EBW5dGCOkxtCYeqKMoEhApL4CEUZp+gI7ZwsxiQkvliscjiC7CkMSMP6FwvxOtqK+tkqQlSuq7TktThdMpBSqFFDNS9ENKJxjYmJIrqgQi02bBFTrMQMkfd4t+ZdUuT7IUCnYUR8XJTCuYftiLW11djLpEzFg/UVrk2WXtglYXe3U3GxXR9kpJaVkriAZbUtMhv2iVu00o8harWUpyvtx1P7oWWhbeaRXkcAxneEvcxg9S4YKsaBq2wEaYB6oJ2jLXlYQzMc1IynHF9az+EMuPzj4DMos0b8qze6ECFW2oT33hgnnUp3c4/iWAu4UGmHJ1Vsz9eVkgrM73shZg/MPm5liAAM9ZunJbMzstu1HTErR+pXc37TfeMWMCWcTaJgSd/p565Av9z67J+CXxvL4TdDuIYppLXxEwurEMWkte41sqdEsILJmeO0lZZp4Gci7yMI7kssRSxjtDi3N1qKllJga5eGmzA2jwvsBfCDQ2Tbu6H9XRINCbBSvdu+AVncCLhNRaeJVnbax1GNcCa0iEtKYqeXDjxilvmXBKr49yIw+AOvhRkSZcC3s2c1i0ILFO2oE0MPOmBX+WZEde1WIOsDQi0zT3w2iqy1apfItffvWnmgKZ9vyYtot5xHMdxHMdxHMdxHMdxXoL2P2z9vyc8+jLgj3Blj8e01hdyDzyiub6QvwP/gMaqxx4DD3GVs72Zus1+tvkDnv33A/8iHgN743uhvfG90N54DOyNrwN70zwLuQce4DGwN7Hx6wFfBx7RNgaCvzv9kHD7jxMdx3Ecx3Ecx3Ecx3Ecx3Ecx3E+4XD4Dw7Knsc0x1ZkAAAAAElFTkSuQmCC;" vertex="1" parent="1">
          <mxGeometry x="232" y="1190" width="385" height="366" as="geometry" />
        </mxCell>
        <mxCell id="YysGY_BepTI40EByLGCr-2" value="" style="shape=image;verticalLabelPosition=bottom;labelBackgroundColor=default;verticalAlign=top;aspect=fixed;imageAspect=0;image=data:image/png,iVBORw0KGgoAAAANSUhEUgAAAWsAAAFQCAMAAABOJa8kAAAAAXNSR0IArs4c6QAAAARnQU1BAACxjwv8YQUAAALrUExURQAAAFxcXMvLy9XV1d/f39jY2KmpqTY2NiEhIby8vNvb283NzZWVlQ4ODgQEBG1tbcrKyt3d3czMzAMDA3l5ef///9zc3K+vr9LS0t7e3jAwMBcXF5SUlMPDw8fHxxMTE4SEhO/v77u7u+rq6n9/fwUFBXR0dHJychAQEIWFhZKSkicnJ+zs7BISEgYGBgICAgcHBwEBAUZGRvj4+C0tLdnZ2fb29jMzM3t7ezc3N6Ghoe3t7cLCwoqKiuLi4vLy8uXl5ZmZmS4uLp+fnyoqKrCwsBUVFTk5Obi4uPHx8cbGxkxMTLS0tPPz8+bm5s/Pz35+fsHBwVdXV5qammJiYlpaWnp6ejQ0NK2tre7u7tfX129vb11dXdDQ0MXFxenp6aenp6Ojo729vWNjY9HR0aioqCQkJHV1dR4eHouLi5OTk9TU1Pr6+kFBQYKCgjU1NaamppycnG5ubg0NDcTExCsrK6ysrJ6envn5+UdHR2xsbM7Ozn19fWdnZ5aWlrGxsfz8/HNzc+Pj48nJyefn52pqahkZGVBQUA8PD15eXoiIiOjo6Pv7+5ubm5eXl9bW1h8fHwkJCbe3t05OTmVlZYmJiYODgzg4OBYWFpiYmAwMDE1NTfDw8P7+/hQUFBoaGv39/aKiolJSUuTk5CIiIh0dHWZmZrOzs+Dg4Pf392traywsLKurq/X19T8/P1RUVCgoKIeHh0pKSkVFRYGBgfT09HFxcXx8fBwcHMDAwEhISHZ2dmFhYT09PURERElJScjIyL+/v7W1tXBwcLa2tltbW5CQkGhoaEtLS4CAgNPT0ykpKRsbG+Hh4evr62lpabKyso+Pj4aGhiAgIBgYGAgICAoKChEREYyMjHd3d1hYWDExMU9PT5GRkWBgYK6urllZWbm5uV9fX0BAQCMjIzIyMj4+PlNTU1FRUQsLC0JCQjs7O0NDQyYmJjo6Onh4eCUlJVZWVmRkZC8vLzw8PFVVVY2NjY6OjgAAADTwpO4AAAD5dFJOU///////////////////////////////////////////////////////////////////////////////////////////////////////////////////////////////////////////////////////////////////////////////////////////////////////////////////////////////////////////////////////////////////////////////////////////////////////////////////////////////////////////APmzeUYAAAAJcEhZcwAAFxEAABcRAcom8z8AABSiSURBVHhe7Z1dcusoEIX95He7ShvwJnjWMrQlrYNiGWyDYiG8zzndIMu++bETocSZ/iYjYwQImlaLOObcg2EYhmEYhmEYhmEYhmEYhmEYhvEDlPMJHN3BX06n81hz/y7hfDqHmt6bPJyOx9Nwcmk8nodzqtl/lXmYLtMw13c7k4eM4zzQo9P0120d4VQHfxpcfb8vamsntnbThbZO8zRMYzq4EzP96YjkZZjO8ZD4ks/DVHDiFRkH9rxgyO44TCcEk3I6T8fjdPEIL6dpOOK1G2LrNMpt5dSvj8N5PjPjMkQWmGH1YRynyR3CfBqG0zj+jF98n/NUbQnfPo4TxheGE3yHw0VqPA4XPd8FxOvzeRpO7EP16zCnQxmQDDQ4u3ekOwTx/XGAm78q/nRK6Xi+XEqa4dOzWLjEYfbTnE6wAZyu44OT83o+jzLd1a9THHE3IZnOpyTR5TIIPKt34YuS6DgjXCsfUrjgFqWtoxtymmBuHWTH56bGa6X6NSLZBREMyXkoI58j5ymDQCsfGVdelqM8FcMQEEOm40VtDb+mrYdz4CA7hse1rf3EaIXw4eniknGWrNpFHsaXtnVgaEznITB8yNgXW6eTjDh3jJBXWxd04BSCw7ooZKy46cXjICEjTtMczigZcRxD6difzpyHY0ZEDHm4FDwbL15snf004iY+hXmaOrrSYusWry6HgNT5Ik9k2F3sWhDb6AlnLfO6ru1h6GmcAh6Cw4Df4XJpfo2IiXGLh3XDNydNnv/xLV4PKTE/tJlIzFvKaN5rooPjuHWQGAx/6uj48iM43FIvbdcXAmvvF17gvRg/dkcZhmEYhmEYhmEYhkHiC39AvSmudP/o7fLKf1Pckq5/6VXkuwqG/L21prrx2n+/3ZAdbG1+XTG/3g/z6/0wv94P8+v9ML/eD/Pr/TC/3o/+tk7m15W5/+/o+dLxi7GvRDBDGIZhGIZhGIZhGIZhbI3/oU9cvre7sOvexG6Nf+V7T95F5z7rEMqgVH3zDz6H74yozP2+EObmXh9kf+Xz6ziDTwbrWWaeby1aYnsb8heMlUrra8r99u37udcn+l/8u8ynjuVzSTDObb9z0x7wX/KdlJeP8928aezz+XqfuvwL/NpHH2P1zFL90rWchIRksQwSSaypPoIcWCbFknOJ8nXQZapQn6P0CDiMTMhpDUn8cagul0Uh1J9Rv17lavYtSGFerP0r/LrMc25RoYhfwW9rnHCZ59CUJDARDMjJl+xkHDMs7+VMlpEEDQE4Nc8jJkWiEkp51kcKjQeK1lAiKfIE6rNlVM/aX57ZEo9eqtf8Cr+OsGqLCurXngOnjyJ+OnQ3J9zmiQlalqDbtLceUjXxEgykPkN3nJ2bo4NvsSHHaBxYBA3pZTOvJ41Xtn86YmjSq/5+HUspdNWDQ0KylkQjyvB0vJpGx1wMcHEYCm8S3HkOqJZnD7s45wISYUZOYIEUqq1Se2YmqQ9bY5Zmh58adJBVOC+cHLmUHFbxGhnS24Wb/t8OJCEh3+hfEgcmOADEJU0A3ITSq+5+DZejRwEEVb1YbImG+jJdrblVglWlXjM9jJ5zyKEkPBtZIAcvGYGiRmu/loTUZ8SJuBFg6AzvZid4lOuIrXnZf2xd7mLI0u3b/rMQeoBurBPLaK/DdkhpDPkV8bqNlz1S48a5+EQPU7/G70WwGBKURVG7IEBIMKBGymJitSEoWl/8Gobmz71f10uJG1/rLy1sBJ8pzQ5fWyM9whPxGvGMEQHlE/0aY+UTEg8Vef4hhTBbAzcjLOyCEFg4IQjz4j2BJ2kjfbRyJhiccV80v2ZDyTHE4MGAaVj8mgdtXGy8sUFu13wPW+RJnvJrWRAwggrZywMQ/3PZwRSa0mciTMIXlqHBgdzNLo/yuGxer4uOeYZRE22NedSGMBNMYNnBeaGtRf7SsSXp73243pBf4ddcLMS2GuYv4Fzz4ugZ55KrK18kHH0QT8b2mzxScgo19eRiK7TkUTIl3BoRR21Ia6Ftz0W2l0tqHusz0c8enNBefj2eHm65/f6yBel7YnRFHnF9kIXoT7P9ktZ4D7nFDcMwDMMwDMMwDMPohP3eXelviGPPfyDhlci2H303bD/6fth+9P0wv96PHWxtfl0xv96PPfza1nyK+fV+WLzeD/Pr/ehva1tfN8yv92MHW//cv2L427AvdRmGYRiGYRiGYRiGYWzNfO62Abbx4adbH3/21c4+9QHZNz9N85Qp6EL/z6/f2qXv64dqsn/63c8y28n0gLrTdUOgVxmQL9NvT/D68+t7nYhteMvWInoDA4W5uPCebRxOqhJam5oPcLJhXVB1gC/Tzdarv8uU83DuYOsUsk91+AnwxSPPIxllWNRokHNahJIvTKCQYyYr1VNopuWwoOTJq+j1yFVw0DNyrr22rEfor7MAS5/67IEOOahyAmUVRgwkITSAsVSXTxGWC/MoYjkhU1/Bq6SCFhpHSlscDhmvAQdXUAQJ3A5skVv1C06hMGaVSg5ynzA8jdy2HmeqSj1uv946Cw4+fdVB2RZKhEXqNfkcPD0aIQEuS8detFcoS+IpNoI4FpwkpCgKwVMpTMJCon+FLBTmD/VdRFfD4xT8GqVZrWoZohFHqSjMWo5O9KIeo7cuThnO7QIYmt7xNwnt6dsJKbQklmoNkQygUESZYWC1hAoZXYXf1Jeo/MRnRtUqEmUcoYX8KvFSApw1Oc4aooPKY1wF+1T9SNvmOdGoUB2fhY+63Vvvyc/TdNRLhBG3HhO4L2sC96kM1iNRB4YUE3LLsoHEW1imCzlUgVtQQS24MNoR2GYNHotfX+0lpe9svehE1ZwAW2fMGnyW4UTMWAVJgFq5qiLhKJI6t9qJq26jt3Lm2u3+ek+w9nDmxZYnCR9FOsTlcSNPJ0m0UzjT/EIfaf8+icRQlEbkQ7IWV7+G9VnHx6SmoL1oznu/XmxdX6ut+UNxRGlk5ddyj6jFeHQ8f+fX7EdLtNG2XveO1yTN06leblNEIYp3v7heEkE3Rm0gwk4Ivwi6TKgsH/rQbM0ypE7N2q/nFDMef2hGJ+yqZpOqghrKsmk1861ff8g+ek++y0WwCghYQ8vIQ8gy6DjnEmCSwpUF/QgZSOD6NDMKYhGH8BAKTxWcCSVSIxQNYNEitkYMwQ+akWULbItzWHZQChCZDNO16erXD9t6D7/uRSlYMojiUILVqngQsnQZqMp9zNBEZMlCfT+K+jH0FibYgiQkp6Bewg+bwbJFKnopg3DDQnRNNs2xOV5SDo/RL173t/Wr0U//2qnYonGlPv8NwzAMwzAMwzAMwzCM7xKOD3/Y+Lcpx4c/4f4q5/5bKF+D0fbt7obpLOyH7UffD/Pr/TC/3g/z6/0wv94P8+v9ML/eD/Pr/TBb78c4yBege7LlPxT40vCr84ZhGIZhGIZhGIZhGMamyM74XwFlRIBfxIR+muQ2Ns2512eqpYQQygO91R3q3EAuhb8r17Qdm2+W/trfZRYJhH+Jsvf5cJD94ao38TF1SMuO8dhtj/IjrPqrQiTbkb5m6yYy8QbNZqLi8YiTNl0ECizo+5907HxVjNt8Y/oztvbcfe8OCf6ac+D+etmPD1dweIkRWTFn6hvAbmoxTgqr0ZzcrC+b8H2IyKIH8VQUW181KapIxQ/h0P/ak639+vDE38D8nEtBVKXcBKyHMJvyXESuwlFJAnkx8n0peMypX+PoZylEj4cNeUAOp4uKIaJywR6sRCd+NojAG1QJ7Ef9Os7Um1jr2viITqmVMBHqjU0VJWBiYEeHBE6IVgsTYmv6PS0qVVU4buXM/QSXHsSril0vv07UapMUfFYfVkuigS7As8UkLV4nOLSqrywxoDooXJbhRAyLt3wARkot0tYyHfQaaUaHtNJhXIUTwaElmVuHFlUHBBlymcTbSbs9t263RGSCjfpWjQnxCKnW6mt/l/GjGGKgFL/rx7dpfo27P8owHBJy9SWxkFyEuZlXbc2uYkqYsxho8WtED5q5yYrB1urXDm9Q9s7Wqxhyb2uPjkhOYkIuzIT0dtXt2Lq9StxW88zR+qhX69eGHMqwWkLAro/Hrf36mXWIY0m9wautERkYDNhZ32zVjEY7M07oAoP2kzOMFVKWtpbAoaZdGfhHn414stSB9PPrByhjcNQcZHIu3jm8RB95yyaPqKsCd1jmOYcpkNteta2Cw/2M9QgTVC6UQfCAm5o5nL3VSq8FqB9hdStv7deHJ9YhKVJGU4ojeFCOjy9zgfniSOU9VbqjDB+spWGaamIiyUlXxRkE2lW8RljBqRZw6yjvQ8iPsblfP/W9p6uIXdXsk4zk5fWq4ififfpG8jRD32kG3+oB94KebCJ8Mj2/gs1/R89XLeMfxunTyj/yGcou1A9qDMMwDMMwDMMwDMMwjK9iWuMV398Qtpe0ssNe0me+H/Kn6b9HevXv3P3PMZ2F/bC9//thfr0f5tf7YX69H+bX+2F+vR/m1/thtt6Puf/v6PPZvtwjhOVfdzYMwzAMwzAMwzAMwzA2Iv2WHW6/h27ff9r+M9X0rziW/2dC7ws551ohzx3W78LNp33ZfAvpwvZ/l/l3j3PKVbBCdQ/I3f5+lJhHGWLiFusPNie77ntfN98avbDyaz9eOvvM+9ufU6pDpKqAr5oeb9EkM/rRbz/84tdunobx27ZOzkWVtfPOO5HmYA7tkygGFZnncaxxAslqu6ozImJckk61JVZnWnNUJo1t9vKLzeUVFqpfu3EYjhvMp0cAGKuDIi7QRajFQH+Gt9asiKO4p+g01PCoft1UdRJFrlBeNKXmGeVySmGkTgMKSJwRo3egt1/Hadrs3nRNoyKkqplQJRRgLFUQAhqv6UKwt94H4k7Xf4KFKfVylBD9lDJHtIh+Osp5pV4aAb39ugwnqtcQF6PqCywJX2IT84lUKFslrmI+V1rgpdVUxanJVbRXUG2aKGukSa22emZ6xCCVcalTJYokdPyUc4j3C5k3uy2Jt7vdNIxq/5sGEVKd/foQL8Okw7zVppIEtanYRTiVCnHCX6lvQzMg565ri615eM/WGitSRItVm1KXWk3BCO8Dz8l1tZr6m2Po8JR/uY0hyFF/pCDM0n/tNvpYu137j8lSFT72X6941dbqHq/Rx8swzJr8HnWlIDKgqgV6tXW7eapfY9HhkupFYYjsiFo8hQhzRCxINIZoK1e/RoWEQIK3HdhhHYJhHE/NFN9h8Ws0piFh8Wfq3qkKjioOMXz4Fq/1JgoIyvC2KKE6NltLiSVei1Cgk3Md2MGvyfdNjejCJQIMIuGDB8QC5lAqz0lC7m78ZPgmX7jEqNWqhBTNzrs757FIhkQDSv7hP0wXlyVNe3FzdvHrLRAtPDxv4Hdsl5urHDMAT1Nqj+trJUkKT6wkDysgwaE+pPDWYfmN00Aed2gcOZgzlEGKhTrQ7Xf0dJx6zeKrog+OHnw/bBiGYRiGYRiGYRiGYRjG24wn+5xPyP0NcfO3gv8zO+zbNVtXTGdhP2zv/36YX++H+fV+mF/vh/n1fphf74f59X6YX+9Hf1ubTnBjB79+Y4fc/xMzhGEYhmEYhmEYhmEYxubMR9m4+bdJRT7MrC+PklSvYTsuT3yU6MM8UwGEKgdIpcQXpFWp6T3i+5uZU9v6TWGWvIiL3KL6AUzwapqsUPQlc/P1J+jud5Z/xtibb+B94vPrlOdYqL5CeYRYYHYXXWD6w+3KVUfhLZZt9m4OaOnNSWk7/1GaIkaarMB2EdU+M7bKNZCrqMZ7rLZeb27rJ/4uI97h0AEVpFCpj1glyqp+wg2aBb9ezl0LSUr9GknR0vHValpIS+IIWy/VFh/XHJnGWMUttMXlfxxbtasAzOf7+uE7rXDaWgTgcb++inmsbV0FbqSTmmhIXECRmKm6wlKi+MRKDEa898WvOYVqA9EGYaRgWAh0YR5CZmlWq5nsBAqhht4yNKVWw4mAttwhBHSyRjzpslRrY/gIH3OzdhXn2I7H/breUnCtIto0qvuxRIhw1zM35whzU+0jR/xPy2aHSAHDMPBwbujXEkPV1hwc4xPCE6+DHFqpwNAIHnIZtRqMF31BYb04K7NFVGXv0CBNzmrS0NrA6X3VuoWEsCTPgM2FRJpfp1Tv1MTUTaLSNFhm+JDIfejb5tcoromKhFk+ykUnh8UwRSk5MS+9FIsCjEYfV4utMaFohp7a/BqGRel686tf05qJFmy2duIHjOxu9nBoSiXI9aX8Ou4uwb9yM2zJAXAjdrCXX6c8Nq03JMQPyjjeyPzUaRa/Dqr1ARa/vmNZYmgJHnjjA97edVpEd4n1F1urgBGPi1+LL6sAkabRGNY+iCtVvgimX6qhk6EE5stFdMKvtl6FE+E6bCa0GKJIFgWufn7tfXXnfxIVDBdveVx8GazTa6pxgKz51FPRIttcnAtRRRY21dYopEaTmal+jf9RoI5b/Ro3iLSk08gCSzVcFisaWSypraXu+zFEmiFttPDptors5dePIOsQyrhdn+tqFuF2YjhMlPY4SAmGDZGMTJFRBYZLQeO1vBFbOazoYBcsITgZ8sTTFaZcVrqpttaZQUNcBMG5C8xyrQZf0HiPy+qsLnN7E07epvo06ebXD4BlROFQbnx5sXu++40GKziURkmxtVoO9ateU8DjHvGaQ9d1CO58CSeoIqdQDT7P310QengOC8PCNUKMXHRofTwNcUp+vUIDUk0emQwLdGmxvk60ck29x+qbCz/p1+y63F/r3wRjuynLvXSPR2mawfEgVRB8sihIJoTEgOJJDyJQqU2Ld2tLKANLYmZh18xlGB/JWD4yILAhFGLZ6oe1RWRh5ngDsaoeGM+0k9fA9ghb+/X/43tPEqdAlad7kM8DzpNQcuzvow/A9KT2mX0TyjAMwzAMwzAMwzAM43s899HXH+bzj7a/zTPfe/rTjP0N8b/4/PoRbD/6fpjOwn6YX++H+fV+mF/vh/n1fphf74f59X6YX+9Hf1ub3lNj7K/JvP7O6f+a5Qu3hmEYhmEYhmEYhmEYhmEYhmEYz3M4/AcWO5uLjGGq/gAAAABJRU5ErkJggg==;" vertex="1" parent="1">
          <mxGeometry x="244" y="2300" width="363" height="336" as="geometry" />
        </mxCell>
        <mxCell id="YysGY_BepTI40EByLGCr-3" value="" style="shape=image;verticalLabelPosition=bottom;labelBackgroundColor=default;verticalAlign=top;aspect=fixed;imageAspect=0;image=data:image/png,iVBORw0KGgoAAAANSUhEUgAAAnAAAADiCAYAAADOIvrCAAAAAXNSR0IArs4c6QAAAARnQU1BAACxjwv8YQUAAAAJcEhZcwAAFxEAABcRAcom8z8AADVjSURBVHhe7d0HeBTV+gZw07ckSG/Se0cUBAGRJkjoioBI700EAtKi9F6FcFWwoV4QFUVFrwqKimIDVATsIEXFAthQru37z3vCLGdmDyGXPxuG5J3n+T2wZ76d3czuzL5zzszuRdYkRERERHRBMTYSERERkXcZG4mIiIjIu4yNRERERORdxkYiIiIi8i5jIxERERF5l7GRiIiIiLzL2EhERERE3mVsJCIiIiLvMjYSERERkXcZG4mIiIjIu4yNRERERORdxkYiIiIi8i5jIxERERF5l7GRiIiIiLzL2EhERERE3mVsJCIiIiLvMjaGad68uTzyyCPy1FNPyQsvvKBs2LBBFi5cKJUqVVI1hQsXljvvvFPNe+655+Sxxx6TyZMnS1JSUtjyiChrYPtcsmSJ2iaxzU6YMEFy5cplrCUi0nXt2lUeffRRte94/vnnZc2aNdKvXz/x+XzG+v+PSy65RO6//36VIZ599ln1uCNHjjTWkmJsDDNixAjBdPz4cdm1a5fy/fffq7YPPvhAKleurALcunXr1Lwvv/xSzduxY4cUKFDAuEwiiqxatWrJhx9+qLbFQ4cOyQ8//KD+v3btWoY4IjqjRYsWqX3G119/Lbt375Z//vlH3UZnTsmSJY33OVtY3n/+8x+VIfbv368eB7dNtaQYG8MMGjRIrcwZM2aE2ooXLy5Lly5V7cuXL3fU46j/8OHDsnXrVsmfP79jHhFFXp48eeSZZ55R2+ecOXMkd+7cUqJECXn66adVW0pKivF+REQ27DswtWzZUt1u3Lix6s3HtGrVKklISAi7z7lQs2ZN+fXXX2X9+vXG+aQYG8PYAQ4vpt5evXp1+fvvv9Vwqd5+6aWXyrfffmsMcMFgUHWLvvnmm/LRRx/JO++8I1OmTAkNtWKZr776qsyaNUuioqJC9ytfvrzqxl25cqXkzZs3VIs3ERI7jg4wzHvZZZepeXhc9DTgMd599131wTVw4EB54oknVNv7778vjRo1Ci2fKDtp2rSp2jZffvllx062Tp06apvBfNwOBAJy8803q23V3lamT58uF198sZpfrlw5efzxx9W29fbbb6tt/dZbb5W33npLLbtFixahZVepUkUNgdjbI4ZArrjiitB8Irqw2AGuffv2oTYcHGJ0DSNy9evXV20xMTFyyy23qP0C9iP4fB86dKhqt++XL18+1QmE++7Zs0e2bNmiauLj40M1Nuw3Mgpwbdu2VUOtWA5GAefOnRvKBXgc+3Me+QLL6NOnj+o1RNu2bdukQYMGYcu8ABkbw9gBDkHLbsMQzKRJk1Q7QpVej6EbU4CLi4uTf/3rX+o++/btU92j3333nbqNDwUEtoIFC4beHPiwse87atQoVTd79myJjo6WGjVqqA+Jv/76S15//XUV+v744w8VzEqVKqUC4eLFi9WL/OOPP6r7/vnnn6pn8MUXX1SBjh8ulF0NGzZMvefHjRtnnA/Yudq96BiywPaI7QMTtm3U4CDpp59+UmFw7969at6JEydCp0ngoArbNQ6wdu7cqereeOMN2bx5s/z3v/9VYQ6nWLgfm4i8zw5wHTp0MLbjcxnnwyFAYcI+AvuEAwcOqOHW4cOHq3qEK5zXhgmf2/hcRkDDZ3KnTp0cy4a6deueNsB169ZNfvnlFzly5Ij6LEeAw3TPPfeoDiKMNixbtkyds/fzzz+recgGX331lXpchLvatWuHLfcCZGwMg54rvBhIr+jVgu3bt6sVg3NrGjZs6KjPKMDhgwErGiELbR07dpTffvtNNm3aJImJiaoNqRzTxIkT1W28IEj0WCY+UNCGI318QPTu3VtiY2NVm32u3syZM9Vt2+rVq1U7Xjj0EujziLIjHLxgwsEXbmOnh+0W28KKFStUwEPvGw6c7rvvPtXThro2bdqonSMOiLC9VqhQQZ3vit40bHtffPGFOq8OoQwhDfsBnOeKIIid8YABA9T9sCx7O54/f76jN52ILgynC3D2tn377bdLvXr15Pfff1fBrXTp0mq+3cHy8ccfq9OtkANwMRWCHj7PUTN69Gi1DOw70CmjL/90AQ4XOmD/89lnn4VG0BAOsW9DZw6GePV6jB5gwsUX2Jfp87IBY2MYBDgcWeNIHEfqgBWIlWsahjxdgAOk9auvvlqFLHShYllY9iuvvBLqAsWbAB8U6OrE8A96yvDiYOgH89FzgOEchMpvvvlGJXE4duyYerFeeuml0IcIHu/JJ59UvQbXXHNN6HkQZWcYqsCEoIbb6InDtmb3sGF7Q4DDdnLVVVepYdPXXntN9azZvdp+v1/t9NBLvmDBAjU0gZ0netgwD9s/tsMiRYqoAzBMWD4ulsD2ePToUdWG7TxS58oQUeScLsCNHTtWtSPA2aNj6O3C9o8RL3z+21Pr1q3VfXBaxrXXXqsCG4Y27X3RAw88EPq8tp0uwCUnJ6sDTPSo4f7Yx2D/hNuYcJW9XYtlotcPHUT2AWo2Y2wMYw+h4rw003y30wU4hCmkcIQp9J5h/BpH8RguxQcKxtbtWtThgwRvnLS0NPUi2Oft4IXBUCnC2913360uosDQLHodpk2bJj169AiNvdsBDkcIDHCUU9x4441qm8VX/ejtODkY4QpHy9jecCCFbQvbI3rYsT1iB4kAh4BnBzhsWwhqOKpGbziOonGRhB3gENKwzaN3z709opfcvYMmIu87XYBDjxamG264IXQqFS5uwNAlvk4Mn9nIC6mpqeqiRvTCoZcME/Yv7733nsoH6LXHaFpmAxxG7LCvwj7ojjvuUPsZ7G/mzZun9jXNmjUL1WKZeE5Yzrm+YtYjjI1hTncRw+mULVtWpWMc0dvDm4Dvk0OvGT4cMByD8+gw/Iojdnxw6Ccz4mIEpGt8MOASZnxY2PPR3bpx40b1gWEPxQJCW/fu3dX5OHYbYPgHH1LZ5MRFojPCEAaCF3rdcFGR3T5+/Hi1LWNoAScC4+AJJx4j2GF7xI4T2y62UdRjW8oowOFIulChQuorhLAdu7c9bI8VK1Z0tBHRhcEOcPjsxm189nbp0kV1wmBfgF41XOCA6bbbbnPcF6NzrVq1Uv8fMmSIqnnooYdC56jjIBMBDqdU6fcDnOqEoOe+QBKdQ9jP4Bx2/bSMqlWrquW5v3cWFy5gORg90NuzCWNjmMGDB6uVj5Rrmg84WsfQKD4UcDUKulM/+eQTuemmm1QbAhkuRUZPGHrekNx79uyphkkx4c1g97ABhlwQvDBhiLVz586Ox8M5PXjxMeSDLlzcxlVxmDBshDCHcHjdddepXgL05uGLhfFc8Ga0x+GJsiPs3PB+x4RtC6dBYFjVPqkXO0ac74bTIj799FO1U8a2ikCGCeeu4IAHO1KcA4cecQQ49NJhe8L2g+EJXHCE/2O7wjDGwYMH1VeU4AtAcZCFacyYMcbnSETeZgc4nGKBoGb3vKFDBJ+5qMEBHDpaMD344IOqlwznveIzFwd7CHnohceEz2gMo+J8dfuiKLThABIXIDRp0kTtS7DPwP4E+xrcBoQ07Nfs76bDebq9evVSy8K5+NiXYTnoeUN4RK8h9k9YDs7NxTKQMUxXvV6gjI1h7PSMF8U0HzDGbF+ZZprQlYl0jB4AvPj2hCvX0AOACcOo+jLxRkB4w3ApTl7U5yGg4QoXDKPaE5aLNxzCJE6sxoeNaUKX6pVXXulYHlF2g3NK0XOmb2+4kOfzzz9X4Qs9bthRYnuwJ1w1iqENTAhgOPBCTzeGKxDgEOwQ8hDasE1j27RPk0BPPa70siccpePcOR4sEV2YMAzqnrB/sM9rs+GiJvuAzZ4Q3uyvGcHn8b333ntyTvqE0IfOHEw4FQrL0M+dc0/2t12gNw1Dp+jAsSeEQXxViP1NFjiH3jThYNR9Xv4FzNgYBisMyRY7cNN8QKrFUAnqTOyhTqxguw7DPFjZeHFx276CxYZeA0xTp051tOswtm0/hj58g+eD2/Y8HXoVEPL05RBlRxjywHlseN9Xq1ZNHeWWKVNGsWvs+fb2iB0cbmN7xMUK2F6KFi2qjmyx7eJgDQdQmI/76uev4MuC7e0M8+x2Irrw4BeW7O0Z0Aumn6uuQwcN9jGowylS7jqcj477Yz7qcGCHjhncxr8YdcP5cvZjuemdONiv6XlDn4f9kb1Pc0NI1E/rusAZG887HPVjPB1pHF2j/OoPIiIiohBj43mHS5MxIcDhJGhTDREREVEOZWw87/CFvhiy4Q/hExEREYUxNhIRERGRdxkbiYiIiMi7jI1ERERE5F3GRiIiIiLyLmMjEREREXmXsZGIiIiIvMvYSERERETeZWwkIiIiIu8yNhIRERGRdxkbiYiIiMi7jI0RFRMTIy1atJD+/ftLiRIljDVElHOVLFlSBg0aJHXr1jXOJyLKKlWqVFH7oxo1ahjnn0fGxojy+/2yceNG9WP1HTp0MNYQUc7VqVMntX9IS0szziciyiqjRo1S+6PU1FTj/PPI2BhRPp9P1q1bJydOnJDk5GRjDRHlXO3atVM7zLlz5xrnExFllSFDhqj9UUpKinH+eWRsjCgGOCLKCAMcEXkFA5yGAY6IMsIAR0RewQCnYYAjoowwwBGRVzDAaRjgiCgjDHBE5BUMcBoGOCLKCAMcEXkFA5yGAY6IMsIAR0RewQCnYYAjoowwwBGRVzDAaRjgiCgjDHBE5BUMcBoGOCLKCAMcEXkFA5yGP6VFRBnhT2kRkVfwp7Q0cXFx6odhsXOuVq2asYaIcq6aNWvKXXfdJdddd51xPhFRVrn66qvV/uiaa64xzj+PjI1ERERE5F3GRiIiIiLyLmMjEREREXmXsZGIiIiIvMvYSERERETeZWwkIiIiIu8yNhIRERGRdxkbiYiIiMi7jI1ERERE5F3GRiIiIiLyLmMjEREREXmXsZGIiIiIvMvYGFExMTHSokUL6d+/v5QoUcJYQ+cWfhx82LBhUrt27bB5TZo0kaFDh0q5cuXC5hF5VYECBaRnz57SoUMH8fl8xhoioqyQP39+GThwoDRr1sw4P0KMjRHl9/tl48aNggk7X1PNhcoff5EkxJnnRVLuQJTM6ZIgHWvHhs1DSP7ggw/k+PHjKqy553ft2lW9Fps2bZJ8+fKFzSfyorp168pff/0lu3fvVjtPUw0RUVaoU6eO+hzdsGGDcX6EGBsjCkfL69atkxMnTkhycrKx5kLki4uSJ27xy5LuCRIdba6JlMK5o2TP3KBMvi4+bN68efPUG2vcuHFh82x2zYgRIyQqKspYQxRJgUBAatWqJXnz5jXOd7v88svlu+++k61bt/LAg4jOK+y7cEC5Zs0a4/wIMTZGVHYNcDFW8Hn9toCsGpz1wzm5g1Hy5uSAjGvrDHClS5eWgwcPyt69ezMcrq5SpYr6MERPHXsz6HyoVKmSHDhwQN59913p16+f6qk31dkY4IjIKxjgPKxBhRh5ZLhf3pkakK23B2R5L59ULx6jetoqFY2W52/1y7ZpATl4R6LsXRRUYept1Fr/tqgWE1pO6QLRsrRngpr3hrUcDHsWuvhUj1fZQtFy7wC/9L06ThbcmCDbpwdk7XCf1C17ahmAHrfFNyVYjxmUDSl+6VY/VoXHW10BbsCAAapn7b777nO0m6xfv17+/vtvad26tXE+USRhv5CSkqJCHKZdu3apczNP1yPHAEdEXsEA51ENK8bIR3ODsnmiXx4Y5JNVljcmB+XZMQHJE4yS4vmi5K6+PnnsZr98sTAoH84OyuqhPlk9zCcPD/FJ/fLp4atasWh5b0ZQDXU+NNgn60f65cidiXJXnwSJi0l/rOrFo+XTBYnydVqibBwXUMvZvySoglopK/yhJlcgSh4f4Zfv/5Uoj1uPicfdZT3mt9Z9Rl7rDHB33nmn+jDs27evo91kzpw5qvb22283zifKCnny5JFRo0bJtm3b1PsR57jhQMQd0hjgiMgrGOBOwjlYsbGxDtHR6eFFh6tZ9RrcPpuaMxnRMl5+WpkkN9WPC7UhuKEHLtZ1rttL4wOyop95CLVy0WgZ2zpeKhQ+9bfcP8An26YHpHje9DaEPAS8dVZAw4UJaLvxyjg5bIWzDpenX6DQp1GcfGPdHtD41PMZ0SJejt6VKCnJzgCHNxOmzFwZg94OTPfcc49x/pngNdLXNWSmxn3OXWZe/8y+R85Ug+W43yOm5WTmfeT+21Dj/tvcNaDPP11NZpbjrjGtI3cNuGvcf79pOe4ayMw6ykyNDfO7desmn3/+uXpfuvcVDHBE5BUMcCfh6yy2b98uv/zyS8i0adMcNdjxY8hPr3nkkUfUidB2TWJioqxdu9ZRs3r1asdyMqNWyRh5eWJA9i9JlAOW92cGZcYN8VIin/PDMBAfJa9YdfcP9EnsyR41tyRflDSrGisLuiXIK5MC8vWyRHlnWkDKFEz/QEQP3AezgtKjwalwVq1YjHyxMFEGNk1vS+vlky2pgVDAgyK5o9Rwq/scuP8lwA0aNEjV3n///cb5ZzJ9+nTHukYPSlJSkqMGQ2R6zZ49e6RGjRqOGtw+fPhwqObYsWPSo0cPR03jxo1l//79jmW5awoVKhT2PkIvo15TsmRJFQD0msmTJztqgsGgbN682VGzYsUKFTD0OvRc6jVYLpav18yePdtRs2PHDvU89Rr8HXoN/k78ve4arBe7BuvLvR5btWolR48eDdUg7Fx33XWOGrw+eJ3sGsDrqNeUKlVK3n77bUcN/g69Bh577DFHzRNPPKG2QXs+ts2HHnrIUYP76MuwFS1aVH1FyJYtW+THH3+UV199Ve0g9RoGOCLyCga4kwoWLCiTJk2SpUuXhrRr185Rgx4A9BjpNRhmiY8/FWASEhJUm16D757Tl5NZCF69G8XJrBsS5N7+PjVUunN2UGqWPNUTgQD3qhXK7h3gs55f+DJqWbWbxgfk0NJEeW6MX53DhiCG8+rKnBweRYBDQOyuBbhLrQC5d1GiDD4Z4DBc+8KtfvFbj2fX5EuKkremhAe4lStXqlCGngy93QQhGdPMmTON88+kffv2jnWN1xCvtV5zzTXXOGqmTJkixYoVc9Tg9vz580M1S5YskXr16jlqKlSooEKEvix3Ta5cucLeR+4Ag/OrcHWuXtOmTRtHDd5HCJ56Tffu3cN6oXA/vQbLdQeLjh07OmpSU1PV89Rr8HfoNfg78fe6a7Be7BqsL/d6rFatmixevDhUs2DBgrAQhNfHvY7wOuo1+BsmTJjgqMHfodcADgD0msGDB6t1Z8/HtomhfL0G99GXUbFiRZk4cWKo1+2NN95Q99GDoI0Bjoi8ggHOg6KiLpIeDeOka71TgQraXx4nR+5KUsOZdhsC3GtWgHtoiHkI9T4r2O2eE5Q6ZU4NG83qjAsVglL45IUMNU4GuJ7WY9o16AFUAa5Zejib2D5B9i0Khs6tg6ZVYuTAHYlqiNZug5EjR6oPwrS0NEe7id1b17lzZ+N8okhCAEWPJCYEN4Rtd7jVMcARkVcwwHlQbEyULOnuk9/vS1Q9b8k1Y5W1w9MvWNCvDo2JvkiW9fTJt8sTZdS18dLKqutcN1bKFUrvqcHQ577FidK9QawKXKlWEPsmLajCWZe6cepChqrFomXnrKD0uupUgLvMCnBfLkmUoc3Tw1nFItEqCOJKV3xxb9d6serK2OP3JsmoVs4Ah16YI0eOnPHrQfDhuW/fPvV1I+6eHKKsULx4cVm+fLnq3dR70k+HAY6IvIIBzqPyJUbJpHYJ8tmCoPy5Kkn+e3+SCk9ta8VKlKsWYe3JkX45fk+S/PNQkrqwoN1l6edKlS0Yra4ePWHd/88HkuTtKQGZ0SlBPreC4MfzEiWv9TjlC4cHOPTAfWkFPzvAwTXVYmXHjIDIg0nynRUY8dUkO6YHZGwb5wcfzhXEOW2Yevfu7Zinw7AVJpz/ZDpBnchrGOCIyCtyTIC7UH9Kq1jeKKl8SbT63jeELVMNJPqiVC9ZFasWgS6YcKoW59Lh/rgitUBSenvJ/Ol16MGLj03/Ljj9AgX8wgOuXM0bdD5mwVxRUtV6DJw/h4smSuQ7tUxd9erV1Zf5Hjp0SC699NKw+U2bNpXffvtNdu7cGXbSPZFX4ae08L2FuBAGv4tqqiEiygo55qe04uLi1I++4iRmDPGZaujcwhWJuHKyefPmjnZ8RUSXLl3UvEaNGjnmEXkZflkEPwE3duxYdaWwqYaIKCvYp4Bk5jtXzyFjIxERERF5l7GRiIiIiLzL2EhERERE3mVsJCIiIiLvMjYSERERkXcZG4mIiIjIu4yNRERERORdxkYiIiIi8i5jIxERERF5l7GRiIiIiLzL2EhERERE3mVsJCIiIiLvMjZGVExMjLRs2VL9oD1+kNpUQ0Q5V6lSpWTIkCFSr14943wioqxStWpVtT+qWbOmcf55ZGyMKL/fLxs3bhRMHTp0MNYQUc7VqVMntX9IS0szziciyiqjRo1S+6PU1FTj/PPI2BhRPp9P1q1bJydOnJDk5GRjDRHlXO3atVM7zLlz5xrnExFlFfS+YUpJSTHOP4+MjRHFAEdEGWGAIyKvYIDTMMARUUYY4IjIKxjgNAxwRJQRBjgi8goGOA0DHBFlhAGOiLyCAU7DAEdEGWGAIyKvYIDTMMARUUYY4IjIKxjgNAxwRJQRBjgi8goGOA0DHBFlhAGOiLyCAU7DAEdEGWGAIyKvYIDT8Ke0iCgj/CktIvIK/pSWJi4uTgYMGCBLlixRPxJrqiGinKt69eoqvPEAj4jOt6uuukrtj5o1a2acfx4ZG4mIiIjIu4yNRERERORdxkYiIiIi8i5jIxERERF5l7GRiIiIiLzL2EhERERE3mVsJCIiIiLvMjYSERERkXcZG4mIiIjIu4yNRERERORdxkYiIiIi8i5jIxERERF5l7ExomJiYuTaa6+VwYMHS8mSJY01RNHR0dK5c2cZOHCg5M+f3zEvb9680rdvX7npppvE5/M55lHOUKBAAfUeuP766/keIKLzCp9RQ4YMkRYtWhjnR4ixMaL8fr9s3LhRMHXo0MFY43V1ysTIv3r7pFLRaOP8s9WwYow8OdIvz4z2yxO3+NVjlC0UZaz9/4iPvUgmtY+XF271y/pRfnl8hF8eHOyTx6x/cfv5sX65vWOCJMSd+8fOLIQzTM8884zkzp3bMe/iiy+WVatWqfm33HKLYx7lDHXr1pW///5b9uzZo8KcqYaIKCvUqVNHfR5t2LDBOD9CjI0RhaPldevWyYkTJyQ5OdlY43XX1Y6Vb5YlSqNKMcb5Z6tx5Rh5cVxAXp4YkM8WBOVwWqLULXduQyLExVwk02+IlzduD8im8QF5b2ZQfr8vST6w/sXt128LyOzO5y/AlS5dWj7++GM5fPiwVK1a1ViDXjjUfP3111KpUiVjDWVfl19+uXz33XeydetWyZcvn7GGiOhsJCUlSe3atdXnjGm+W61ateSvv/6SNWvWGOdHiLExorJDgLu2Rqx8PC8o9cuf2wCn63N1vHy2MCh1ypz7AOfWtGqsfLk4UVpZf5dpflYbNmyYOppZsmSJcb4tJSVF1U2bNs04n7IvBjgiihTsX9A58M4776hTNQKBgLHOxgDnYRjaXD/SL+/PDMhdfX0y/Jo4+XCWM8DlT4qSmTckyNtTA7JtekDmdU1QbfpyyhSMluW9E2S7Nf+tKek1hS8293INanb6ABcbfZEMaBInr0wKyHszgrJ6qF9qFj9VV6dsjLx2m/U8pgVk88SA9GoYKzfVT6//YFZARrWKdyyv1aXpAa795eEBbkxyvCzt4ZP4mPTb0VEXycR28bKyn0/15OUORFmP75Od1nK3WI855bp4aWYFQgwB75oTlLv6WPeNtR6jZqw8ONgv3a6Mk6dG+WWH9bznWn9/vkTn348jn+eee07++OMPadeunWOeGzayn3/+Wd58801+iOcwDHBEFCkIbGPHjpUDBw6oToLdu3erc9xO1yPHAOdRV5SJkU/mB2XP3KCsGuST58b4Ze+iRPnUaqtXLj3AFcgVpUIJeuXuH+iTBywfWfX/toJNki99OdWsgPX+zKAVagJy/wCfOu/shzsT5W4rECII6Y8Jg08T4OJiomSWFRS/XByUR4f75N7+PnlzMgJhUKpekl5bpVi0rLACFs5n+/5fifL5wkQrNAblkWF+FbZ6NoxzLDP5ZIDrYAhwK/omyGuTgpJghTDcRoDD+XIIYIF4K3D5omR6p3j1XD63ni+Glj+cHVSPvWaYT1Lbx1sBLkr6NIqT3+5Jkk+sdbTGeh5YXz+vTJQlPRJUwLMfD8On2Gi++OILKV68eKjdpESJErJr1y754Ycf1DkIphrKnhjgiCjSsG8ZPXq0bNu2TQW5Dz/8UIYOHRoW5BjgToqKipLY2FiJi4sLwZWr7jp3DW6fTU1GYqKjVFjZaQWSGid7uAIJF6lgdmhpolxRNv15pSTHq4DXoMKp55lcI1Y+XRCUbvXTw1LFItEyulW8lCt0KpDdZwW5bVawKp7XGdLgdAGuSZUYFR4HN4uTqJNtJQtEq56/hTclWOvvVG2+pCj13N+dFpS6ZcMfw5ZRgFtqBaznxwYcAQ7hEOfJIbzptQ9Z6+rb5YnSvUH4cvpeHSdH70qUoc1Phcd7rPD5waygFMl9ajmVK1eWH3/8UbZv366uRLXbTXLlyiUvvPCC2nDatGljrMnI2b7XTDVo02twHyz/TDX6fMDfrNeAezlnW2Nan2f627J6e8zMOoIzBbjMrCPcdte419HZ1mT1OnL/be4a0OdDVq4jcP9t7nWE5ZypBjJTc7bryF1jWkfuv+1crUeI1DrCbXeNaR1lpiYz6+hsajKzjs62xrSOMvP32+Lj46V79+6yd+9eFeQaN27smM8Ad1K5cuVkx44dcvz48ZDp06c7arDin376aUfN2rVrHePUiYmJ8uijjzpq/teVi+E9hJ95NyY42jvWRjhLVFej4jZ63H5ZmaR64PZZQQj2LgrK3w8myXztvrn8UdKyeqws6p4gr6UG5OtlifLOtIAaWrVrbKcLcBjSPHZ3onxhzfvCegw8FnoI8VgvjAtI4skePyhrhcWPrOeEXjB9GW7nIsD54y+Sx0b4ZMMYf6hNN6BxnOqZK57v1N8zvEWcCrmVtat59QDn3sDd8BpjuPWff/6R9u3bG2sygq+xeeuttxzvkSlTpjhq8BivvPKKo2blypVhG/vkyZMdNVhuqVKlHDWzZ8921Lz33ntSqFAhR02PHj0cNQcPHgzbWaDmp59+CtV8++23UqNGDUdNq1at1Hq0a77//nv1lRt6DYarsZ7tGpgxY4ajBj2i7777rqNmzpw5jhp4/PHHHTVPPvmkWnf2fGybDz/8sKMG99GXAStWrHDUvPzyy1KwYMGwujMFuN69e4etoyuvvNJRg15bnOdi1/zyyy/qa2v0mvr168u+fftCNdC1a1dHDfZZn332maNmwoQJjhrA/kevwf7JvY6wH9NrsJ9zf/hgf6jXYH9Zvnx5R83tt9/uqPnggw/CruYeMWKEo+bTTz9V61WvwQVCX331VagG66hfv36OmoYNG8qXX37pWFb//v0dNfiaBff7aOHChY6aYsWKyZYtWxw1s2bNctTY32Kg1zzwwAPqA1avGz9+vKMGj122bFlHDd7reg16V/Ac9Bp8ldGvv/4aqsG6cH9VRJcuXeTYsWOhGowI4AR4vaZ58+Zy9OjRUM2RI0fUsvUavP7u/dHcuXMdNRiVwHter1m8eLGjBlavXu2owdX8uHrfno/PYaw3vQbvNX0ZkJaW5qjB61O0aFFHTevWrR01hw4dkqZNmzpqEH70dYT9UaNGjRw1NWvWVPs7uwbrffjw4Y4abLPuba1Xr16OGuzXP/roI0cNtge9Btx///r16x3ryIaRngEDBqjXBq/hpk2bpEqVKo4aBriT8JUA2PnhBHZb27ZtHTVI3PgeOb0GOxV9I05ISFA7Eb0GJyPqyzmTQrmiZJsV4CZ3dAY4nM+FsGYHuEeG+1VP2u0d42V6pwRlsvX/8W3jpXnV9A/6WiWj5eUJAdVz92yKXxZ2Sw9x70y1AlyBzAc4PAauUJ3bJUGmXZ/+WFOtf1PbJ0jXenHi064cRYDbYz1PPA99GW4ZBbhlPRPkuTEBdd6d3XZnn9MHuKdG+41DwghwuMq1tPa33nJteoCzh34BO9lvvvlGPvnkk7Bw43bJJZeoEISggg9aU01G0A2O8xz09wh2RnoN3kejRo1y1OArTtxHfXgv6zVYrjtY4Gtz9JqJEyeqXkS9Bl+PodfMnDlTKlSoEFazaNGiUA128lgXeg2u3sUHpF0zb948tZPRa7Atnmlbw98wbtw4R43p63+wg9NrBg0apNadPR/bZp8+fRw1uI++DOjWrZujZuTIkSpouuvOFODq1asXto4QRvUa7OgRqu0afBAijOg1ZcqUUYHJrgH3hzP2WVOnTnXUtGzZ0lED2P/oNdg/udcR9mN6DfZz7vcaXiO9Bq+hO+S634+TJk1yHOBCkyZNHDU4eMGHlV5TuHDhsHXk3tawzbrXUYMGDRw1CKoIVXqN+4ACARMXJuk17gMz9JQgeOo1PXv2DAu5WP96DR7b/X2S7vWYmpoaFnLxPsPfbNdgXeAg012jb2vz588PW48IwgsWLHDUuMMyXn/3/qhjx46Omjx58siYMWMcNZ06dXLUgPu9hvO3EH7t+ViPWG96Dd5r+jIA4VSvwevjDjnVqlVz1CB0V6xY0VFzxRVXhO2P3AcdCM/Y39k1WO/ug1dss+5tDdu6XoP9OgKbXmPKGu6/H/ssfR1hH4oD8/3796teNxzI4z7u7QgY4DwIYeiFWwOqZ+viwKmwMvX6eDmw5NQQ6vxuPnnVCmMJcc771y4dHQo5GC7FSf2XlTq1o8FXdeDcNNOFDL2uij/ZO+Wc161+rOy2lnO5tWy9vXrxGCmWx1mLc/N2zw2qoVu93e1MAQ7Ds/bfkWj9+/ytfnl1UvgQKs55e2LU6Xvgds4KOnobR54McFW0AIcd6ObNm+X3339XX/hst5ug1wlHsghxRYoUMdZQ9nSmAEdEdLZw0IzzqzFhFAAHEsFg0FgLDHAehas3ce4WLk5obQWdCe0S5OAdQRXg7IsYapWMUUHktVS/dK4bp+pwccG+RcHQd8Ut6+lTIan3VXHSonqs6tU7vDxo1SSqKzPRa1XICnK4b9tasar+gPU4CDntLouVplVjJJgQJXkTo+RZXEhhLWtY83hVf1uHBPlqaaKMbJke1HD1K3oJcaXqvsXpF1a0sZaJ5ZbM7wx+0NpqP3hHohoads8bdk2cutgAV8xiGRg+/e2+JNk4PqCeDy5AwN94wxWxVoj1y9bJARUE8ZwvtdaLvZyB1nNBgNUD3KhWcWoYWA9wgKNlTGf6ehD0YGDC0ZNpPmVfDHBEFCk4LWLZsmVqmDujc+NsDHAehWCFHqyvlwXln4eS1NWXaVa42jXb+TUijSvHyisT/XLi/iT5cxW+FDcgXevFSszJoUcEl0dvPjn/gST1NSJTr0sfDv14XqLkCVrhzQpI+ELdv6z7IzThCtLf7k0S+XeSCogVCqcHHSwLFwz8tCJRnfv21dKgTGoXr5aB+U2ssHdsRfrzwJWuqMNjonZw0/CTmdEDt98KpKYeOPTi3dknQY5bz+N3C64e3TQh/etJcF4cwiK+rgTPEUEX/rAeC7fvH3SqN27gyXPgHAHOCqcYJnYHOHRd49wkDKOe7kpUDD3ivBYMn/IK1JyHAY6IvCLHBLgL9ae0SuaPUifbF7QCDYZKEUTwNRp6Db4TDSELP7GFOn0eYPixQhFrviX/ye8/K5EvSspay0LQs+fjilXAsvAvlofH079uA//HFa2Yh2XY7YArZcufvK++PMBz1GsBj1veWpZ7SNSGvxfLA9Ti4g6cy4YrXvG8S1nrBs8Dj2U/Hm7rV5ciXOLv1P8G9Cbib7AvkNDhPBdM9957b1jXNc5BwPkkmHDOhD6Pcgb+lBYReUWO+SktnDxpn/B8up9JIkK3NU7yxxWP7vPbcMI2hlchsz91QtkLThLHewMnVWd0bgoRUaRhpAhDrrhQyzQ/QoyNRERERORdxkYiIiIi8i5jIxERERF5l7GRiIiIiLzL2EhERERE3mVsJCIiIiLvMjYSERERkXcZG4mIiIjIu4yNRERERORdxkYiIiIi8i5jIxERERF5l7GRiIiIiLzL2BhRMTExkpycLEOHDpVSpUoZa4go5ypdurTcfPPNUr9+feN8IqKsUr16dbU/qlWrlnH+eWRsjCi/3y8bN24UTB06dDDWEFHO1alTJ7V/SEtLM84nIsoqo0aNUvuj1NRU4/zzyNgYUT6fT9atWycnTpxQPXGmGiLKudq1a6d2mHPnzjXOJyLKKkOGDFH7o5SUFOP888jYGFEMcESUEQY4IvIKBjgNAxwRZYQBjoi8ggFOwwBHRBlhgCMir2CA0zDAEVFGGOCIyCsY4DQMcESUEQY4IvIKBjgNAxwRZYQBjoi8ggFOwwBHRBlhgCMir2CA0zDAEVFGGOCIyCsY4DQMcESUEQY4IvIKBjgNf0qLiDLCn9IiIq/gT2lp4uLipF+/frJo0SKpUqWKsYaIci78ePTSpUulffv2xvlERFmlYcOGan/UtGlT4/zzyNhIRERERN5lbCQiIiIi7zI2EhEREZF3GRuJiIiIyLuMjURERETkXcZGIiIiIvIuYyMREREReZexkYiIiIi8y9hIRERERN5lbCQiIiIi7zI2EhEREZF3GRuJiIiIyLuMjREVExMjrVu3luHDh0upUqWMNUREGSlYsKAMHDhQOnfuLD6fz1hDRJQVChQoIDfffLNce+21xvkRYmyMKL/fLxs3bhRMHTp0MNZQztSvXz/ZsmWL8sILL8i6deukVq1axtpgMCgXX3yxOiAwzafsrW7duvL333/Lnj171M7TVENElBXq1KmjMs2zzz5rnB8hxsaIwtEyPphPnDghycnJxhq3YsWKSe3atSUhIcE4n7KHQYMGybvvvqscP35cbRDorTXVrl27Vvbu3SvVqlUzzqfs7fLLL5fvvvtOtm7dKvny5TPWEBFlBXQ0/PXXX7JmzRrj/AgxNkbU/xLg8ufPL6NHj5ZPPvlEdu/eLYULFzbWUfZz5513qgDXsmVL4/wXX3xRfvvtN6levbpxPmVvDHBE5BUMcJpLLrlEUlNTZf/+/epDfNeuXdKzZ0+JjY011tP/rmPHjvL555/Lp59+Ktu2bZOFCxfKxIkT1ZDUvn375MEHHwz1eGKoe9OmTarHC/V33XWXFC9ePLQsDGeOGzdOtm/fru6LuieffFJatGihlhEXF6eWj9CFUI77oO2OO+6Q1157Tb3e9rJs99xzj3rt9QB36aWXyptvvqkeA+ENQ2hfffWVug1paWkSHR3tWA5lTwxwROQVDHAWDJWOHz9eDh48KH/++acKDd27d+fQaQQ0atRIDUMiQGHCm+/3339XAemxxx6TyZMnS1RUlNxwww3y888/yw8//KBC2euvv67q169fL0lJSWpZU6ZMUW0I2g8//LA8+uij8v3336uwV6ZMGVWD8IZh0aJFi6rb8fHxsnnzZnW/cuXKhZ6XzRTgypcvL3fffbd6ft9884388ccf6nxK3Ab01uI568uh7IkBjoi8ggHO0qdPH/WhjR6hNm3aOOa5oQcHwc6G2+eiBsHCHQJworxeA+6enszU4La7xn0SvqnGvRw8P3fN2Z7MX6NGDfnpp5/kyJEj0rdvX/X62PPQW/b++++rHrWGDRuqtty5c6sQ9c8//0iXLl1U21NPPaVet5kzZ0qePHlUG3rLrrzySrV+ATXffvutFClSRM3Hen7uuefkl19+CYU8nSnA6Z5++mk5duyYlC5d2jg/M7Ae8Tz09Wjq5XXXmN5HuJ9eY3ofZabmbN9r7uVk5n0EZ/r7M7uO3NuRaR2dTY1pHQEDHBF5BQOcBb1Cb7/9tvz444/y8ssvS9euXdXXBeg1gA+wDRs2qGXY0AMTCARCNegdevzxxx016HHSlwMPPPCAowa9fu4PhBtvvNFRg6Hd+vXrO2pwAj6G9ewahBVcmaLXINCgZ8qu+fXXX1Vo0muwDg4dOhSqgeuvv95RU6VKFfUc9JqxY8c6ajLrqquuUvfH+nPPq1SpkgpJeGMi4OHvQ+BC7yimefPmqTpcPYoeOkwIdhjWxHrFhScIDfgQPtcB7j//+Y96n2DDMc3PjJIlS8o777zjWI9Tp0511CQmJqpeSr0Gz80dYtALqddgue6vyZk7d66jZufOnVKoUCFHDU4V0GuwLps0aRJWg/eOXYN1X7NmTUcNti2sW7vm6NGj0qlTJ0dNrly5VEC3awAhXK9BQMbQuF5jv+66J554wlGD19vuoQVsm6tXr3bU4D76MmDlypWOmldeecW4D2CAIyKvYIA7CV8NMWTIEHnvvffUB/iHH34oY8aMcfS0IBQMGDBA5s+fH9K7d2/HET2O3tGjp9f06tUrNN/WrVs3R83QoUPVOV16zWWXXeaowfCiu+cHgQ4fbHbN9OnTpUSJEo4afKDPmDEjVIMPdHwdgl5TtmxZFQbsGkAvmV6DiznwHPSapk2bOmoyyw5w//73v8PmISgiKOC1mDVrlnoc/I0IORMmTHAEC6wjhEicH4fwgvPTEBoQWjEfPWaHDx8OnQOHXpVnnnnmrAPc888/rwKce938L9BbiGFXfT22atXKUYP3Eb7fR6/BgYW7Nwvf/6PXYLl58+Z11LRt29ZRc+uttzpCDiD06zVY1xg6dtfgvWPXIHTZQ9M2vHZ6DV4/d8jDtojXzK4B91W/CEcpKSmOmnbt2jlqAAcieg1CPdadPR/bZo8ePRw17oMXQK+uXoPvi3SvI2CAIyKvYIBzwXc74fw3O8jhfCl7eI7OHXyo47VYtWpV2Dyck3jgwAHVA6UP0SJw9e/fXwUU9I7gilGEbns+eluWL1+uXjcEa7QhwOEcOPQw4jZeX/T+YPjWFODs+7t7Om34njicm4cPcrvNNNRG2RMDHBF5BQPcaWCoDUfzc+bMYYA7h9AbiG+xR28fhj1x8QJ6P8DuqcEw4bRp01SQ2rFjhxomRm8Mhm8RxhCuMAyJK1cxvfTSS+rb8dFjal8pih4+LMteDobEBg8erHrQMKGXzg5w+E43+zmgDtPs2bPVbVw1q7/+dsDDctCzg54k9J6e7bmAdGFhgCMir2CAoyyFUHy6admyZaE6nCeFYVP0dtkTLmq46aabQj1eCHzoYUMQtCdcgYphbgRw1OCrQvAt1fb05Zdfqhqcv2UHOAz5nW7CxoFz6uznhfPz7F/0sKdHHnmEvXA5BAMcEXlFjglw/Cktb0Awq1ixopHpp4nQ02bPN32hMoI5zt+za9wn5wMuCNCXATi/yz53EefH2fPd8FUjeAx9efgbKlSoEKoxPSZlT/wpLSLyihzzU1r4sMbJywsWLFAnWptqiIgygi+SxgVBI0eODLvoiIgoK+F88cWLFxsvlIwgYyMREREReZexkYiIiIi8y9hIRERERN5lbCQiIiIi7zI2EhEREZF3GRuJiIiIyLuMjURERETkXcZGIiIiIvIuYyMREREReZexkYiIiIi8y9hIRERERN5lbCQiIiIi7zI2RlRMTIy0bt1ahg8fLqVKlTLWEFHOVaZMGbnlllukQYMGxvlERFmlRo0aan902WWXGeefR8bGiPL7/bJx40bB1KFDB2MNEeVcnTp1UvuHtLQ043wioqwyevRotT9KTU01zj+PjI0R5fP5ZN26dXLixAlJTk421hBRztWuXTu1w5w7d65xPhFRVhkyZIjaH6WkpBjnn0fGxohigCOijDDAEZFXMMBpGOCIKCMMcETkFQxwGgY4IsoIAxwReQUDnIYBjogywgBHRF7BAKdhgCOijDDAEZFXMMBpGOCIKCMMcETkFQxwGgY4IsoIAxwReQUDnIYBjogywgBHRF7BAKdhgCOijDDAEZFXMMBp+FNaRJQR/pQWEXkFf0pLExsbK3369JF58+ZJ5cqVjTVElHNVq1ZNFi1aJG3btjXOJyLKKg0aNFD7o8aNGxvnn0fGRiIiIiLyLmMjEREREXmXsZGIiIiIvMvYSERERETeZWwkIiIiIu8yNhIRERGRdxkbiYiIiMi7jI1ERERE5F3GRiIiIiLyLmMjEREREXmXsZGIiIiIvMvYSERERETeZWwkIiIiIu8yNhIRERGRJ10k/weManM77Iy2dwAAAABJRU5ErkJggg==;" vertex="1" parent="1">
          <mxGeometry x="113" y="3390" width="624" height="226" as="geometry" />
        </mxCell>
        <mxCell id="YysGY_BepTI40EByLGCr-4" value="" style="shape=image;verticalLabelPosition=bottom;labelBackgroundColor=default;verticalAlign=top;aspect=fixed;imageAspect=0;image=data:image/png,iVBORw0KGgoAAAANSUhEUgAAAU0AAAFCCAMAAABCeH8jAAAAAXNSR0IArs4c6QAAAARnQU1BAACxjwv8YQUAAALxUExURQAAAAQEBCEhISoqKisrKyUlJQcHBwEBARsbGyQkJBERERgYGMfHx/////7+/qurqxoaGtzc3Dw8PMrKyvPz83x8fAYGBs/Pz+vr62VlZUtLS1xcXLq6uqSkpAkJCTAwMFlZWdvb2+Xl5d7e3o6OjmJiYszMzHd3dwICAtDQ0N3d3RYWFg8PD9TU1BkZGcTExObm5kxMTFNTU1BQUCYmJhwcHE9PTzg4OBISEkdHRyIiIlJSUikpKS4uLpSUlHp6eiwsLOHh4aqqqkZGRjExMQsLC0RERD4+Pk1NTT8/PyMjIw0NDQgICEFBQdHR0RMTE8jIyNLS0jk5Obu7u3t7e3l5eb29vd/f325ubuTk5Jubmx0dHS8vL7y8vOzs7FdXV+np6fz8/Pv7+9bW1nV1daCgoO/v715eXs3NzVFRUTU1NUhISKysrK2trfLy8mpqap+fnwMDA6enpz09PRcXF+Li4gUFBfHx8eDg4Pj4+P39/UJCQgwMDDIyMjMzMygoKHh4eIeHh19fX/n5+ePj429vb+7u7rW1tQoKCoSEhIaGhh4eHsbGxi0tLcXFxTY2No+Pj/b29ouLi5GRkScnJ9nZ2U5OTkpKSra2tjQ0NFRUVH5+fsLCwrS0tIODg7i4uHNzc+fn51tbW0BAQLCwsPDw8A4ODpiYmPX19ff395eXl0VFRZ2dndPT05KSktjY2L6+vrKysiAgINra2mxsbO3t7bm5uXBwcJqamre3t9fX166urhQUFJOTkxAQEMPDw/T09MDAwFhYWFVVVZ6enpaWlqOjo4mJiTo6OnR0dIyMjPr6+urq6s7Ozr+/v2NjY2tra4KCgmlpaX9/f319fXJycoCAgG1tbYGBgVZWVmhoaGdnZ1paWoqKikNDQxUVFWZmZmRkZKampl1dXYiIiDs7O3FxcR8fHzc3N3Z2doWFhY2NjUlJSWBgYGFhYaioqOjo6KWlpZWVlZycnMHBwampqaGhoZCQkLGxsaKiogAAAMj1+P4AAAD7dFJOU/////////////////////////////////////////////////////////////////////////////////////////////////////////////////////////////////////////////////////////////////////////////////////////////////////////////////////////////////////////////////////////////////////////////////////////////////////////////////////////////////////////////8A458DyAAAAAlwSFlzAAAXEQAAFxEByibzPwAAE8VJREFUeF7tnUt24zgMRT3mOd6GeY6XwGEG3ID3w6G3ooVwIxpoIf3eAyl/Oh9/6EqlgtvVFkJRFAmBoKIY0MZxHMdxHMdxHMdxHMdx7iClklKCENr2nyW8fnxhtyVvYXPAZv8Pq7PsMcDYfngRYXeccz1AnSnX/bG04n+PtN9OdfdidYb9PvDziM/Nzmwz1JohhMqfQoWGQ1ZJ4g58/EQLnqjIdHzTYDSCXGpJNXNnK3ka2Kb0yE/IOgunBKy0bHf4KaIXiV7gmDczncFxu5145A/DxpnCpnAw2wrNcjSc/OGNJbPVewpoMJeMmW4ytTlt5xBZ8LYtZruH4xzyfhdCgj7fCrr04yjHA9ZZLLQwjyVUGEo67ubtfkb5so2htHn5HG0VOrCpcJA2cdK6bA8wUhgh/0/HfVziDtcTP6L8J0JtFgyUc67UeNyHcJw2+8PmcIARLTEeRrhUNFVzKbK2PtMPnAPQWtjtwwT7ZC/Qjx1cTP2RsxyE4w4OM2O+pzcODxPtuIQ9VPmG9YnD2w+Y6tRYE+lboE2sSEvNxwOK5+1Ct52kwsD1nqb6Mzlsud7sjuUNa3uB/4Jthv1usztAp6ww4nYGfnH1F2m3R5MZPgUmyTMkLDnoAzzADOe9Q8Ufa5vo+b6kt+0+HzHguN2HJNuENrFQLCFNI+4Ow37btKmFDVMgTbR7rDYoW7Ss243vdtGaDl58C/wiFvT8iDvqyCEcMc7jW4D73GE90iqPX2CeJsxza6VipcG/GUVLzDlizYH6zJkk7ICRFtVYRsyJbwADzBmjrQu2sQaMaK78pxFzuC8Fd0ValpwRYMqPuKV1BH7zapLjOI7jOI7jOI7j3EPpj5V+L3ncI6U3/gXod7PfDjOoNz30/9XoWwZjmNw2z/9a9iRumyO1Obk27ZshQ3DbHGub7jfdbw5k6JruM91tcyB+vzmSobbpv1mOu0Pypx6bXH+9ChzHcRzHcRzHcRznX2TZ3/18M4TwZWQwq4QPK9UnHrUEBv28hme6ZTzwRK5Oy/LFedMCpngR5hFyP6Ys9z+hDqVHM+WXRYTN8VltPvCXjJBS/OK8Kc4plbicx3OtWgjxARsIyxrOFEdGK5b1GsPqn9bm7X/JCCWkbiAtxBAFFp+9YTKbVkIvkGR9hfrrJaUutej41TSZAkeblHCF2FArUQgyP+AvVBJKjjOO1smGGmdZlvXx5gjbvHWm1yVi+qp2s640oyBysJUzGzoKKgmwTdRL7F3gQdiiBiUeV3kI6AdxG5cJR+RWosuQp7QpEw/KHLPQgck6MYiQl9gSffxJ28RZE7Qlu7DzZjjGwqFlXF/sSigvnOWMfKXyUHeG6lgSaFJQLg9e1OkSeZAUDbvFv5CW2c5QqLaMjxKjuZWA62NH61pqO4qAs5yN6hm638xAbXUhUGBBh6Mzo4MJ2kxPmoFtePAEcG44CBpACYWZClIJqlP3onc64Ghqts7YF/BPRhtweU7alJHyJxY3rv1uwhnU9CoUCDgGJfW6ZBWw7S4Tc0wjHWGb6iVm5aLRBsZRU4BJcIaeyDIpU5ydN2n6UpttpGmJYMYKpBJMyV6C6tIMabYJ/eFoNCRtYs1Cq9odr7SpD2tRXNtmYSfYJH2R1LIKmE/t8uNMprG2i4HVPAsOn5fZejbONr/mzESabcaYYYW12ybuMK2j8JsmUJvsqO4818Wj2ijgHpLMscaPbZMXVic+06Y1Pgj4pKbLbiPPcPsqlLtXg//SeeEO6Q2hSSzXZ35zpt+kl6sYNg4ILKEJoRL12NZ0KpV+sdkmtCm/yYMgwFFyv9kmlcyaL1jTc9clGDHTb7dNrq/QvdZiSlyCY8RivK7pXH3oKHT3rhXc1n31mBJtus1o3I7iZ0x12uaS6Ei0pvPq6qCuzTzxcO3jxYCzeXbQHzBCmzfbZiwAQikZAr07Nv2eMWvDG0O7PxRWYneZrZBCM07crBaUYct/WMRYZEsEFgs0DPNmoT5adWyHmuYFz2tz2d3aN7mvMfydv6eH539Pv522eDhD0AriOI7jOI7jOI7jOFfk+df/wljHPUbxeKHNcVwaV48M9Gj/oXhk4EgG5k5w2xw70902R870X2+bHp8+kiHvxzHcNv0OaSjuN0cy0G/6/eZm4AtCiqdhuPyaquM4juM4juM4juM4/wjL8bW/83+cjgJYUPr7tIj1+4IXPmnvBr4lE8U9pFPKg5XUYm8V5vbRAHJcJh3aYlw/IbSILZ7tqcGMiLNcbTNNS5PGsYYHn5EndTrMS071HW2TwJBLU9KXIzzT4VPaGBC1uj57L9MrXu+dYu3ZKhgYCCEVaJHBglnxgRb324IHGSjI0Lo1bUWyQEOWlMRamP8SUNTaCyUvsw7Dx1kMIrcJte3kNzHCNnVhqUsFhw6G4e6LslVY+GpgQKrCVVvfaYBlsSw2oe1pQatLZIDsxIM3mPdsaVaoK/5nigZKvCjWYGLOC6azwKn4M7/7xxh0O/4mRtlm3e5vP+k9YGAwOGooYngKMg8M2ITq1pj9s0Bq5bpAR4IC00mffiivWGNwFPPZoB0atdJgWKvCJFzBgpNAxDE4ed/7JSNsk9qct/s+tlwtx3SgwIKArbyBBO5KveRC0PBLFxqmM+bsiBF1la7Awl+xp/VdPzPMmu+MbwHCa6KFdYjNlFEl1sCA95CyVHbmN02yFphQRKHbl5kW2EHZDXrTxtlGNUKbzW/mw/Yo68SoLGcIhm/jLV3ANaeBtRJsT7syBA2JghpsmLVAXy0lBQcgV3nm8+3nGi31gulxtc2TNlsfMiS+pF+5M6S3a9u0BCKMd5fSL7XJ4fEgjVP9YL8onPXoYdbvelTo8+K8Q7CxYGQXKSnUaYszz3MyIUKbJ9u06mTVppbIbptV09m0d7JNy5NhLWA+mDaVuOEmhtkmyYepSeOA38zwYRgQc1godwXUqJQUMH661EjB/KbZJlWKcma8oPoxYyVgqNgm2B2sdK5sCgdRe/SlzGwXcCxt/8xvUpuXtvkZA23zNXAeaelta7rNcS650jTu0FGihRp6UPoTWhYrgNSTXszKUcWDqHCoB//WNBi8PEBrOpiwmlFiw8yR9ke1+eLvegSmqri43zyTsLVfBXU3ia3dP0KtvHVknSYw/5m2qpJg15RQoeXq4/EqIGrD2lM2ttR9xpc8r824e6k2fxR/MhOF4ziO4ziO4ziO4zivJttz59/M7Y+Tv8TjhUbGC734+eZPwGOAR+JxliPxGOCRDMzr4bY51jbdb7rfHMjQNd1nutvmQPx+cyRDbdN/sxx3h3T2BsLfSvn1vs5xHMdxHMdxHMdx/kle9LQ4kVuep7RKLYrSNt/Ow9/+eOhpsb3h/T2SZYVocWVfP+xrb+/u7/Z9MpXEIO4If7viIW0yru99LGKUYcwhFIZWfkF/0Xpv8Ptej5sU3mw8rM07nr3z/dNQDzYxQsScPL2ROifIKWVmkIDl2tVVSG4PA7SK+CiophK+2Foxqus1+E7jTFGhmeSOsOErbrfNwLwOyxwKMz9AYhQvZnO0rfJEVJazzmYNdS5xwk5mmUAJC+AEWB3qrNwjbTIy33h8kj1NKF2fj3fi9lWI7+a37Dv9bPy2oqXogYosI0HLeYAaJeWZgbmxoHBGCbXJD+amYIYUvet/llVa7Lk4KfYbSNadp20z5FqVmGGDrRQTKLCgU2Kc2xSV5YE1GcR6NVdt0kalSP5clyBtMh56FRiOb9HoinxuXGkzoRPq4CqwXy0fxvWuAkGn52AkXJSo4S6sA9Y4NSpWlzaf9pthjrMSOEjg6dIMqZ3FSJX5YlDUdYdLiQlutrlqU93hKqQMPaZNZu7otmnaxEdlU6nN9H6i62wQCb1RL0oXLjJkqO/aRWFNg1FRIuGshJNEgu3CiVomCo5TAlbNWXUe1+btfpPB3qaiZpvKUSDlnGtT/VEps8e0rBDMMoESruCmTVi0lu+2f13J0dCFNv8cXIVMl6fR3M3tfhPLNRNG8IxUY4KClAwCww/MqiMtKBsPqrA/KKRK6SWbMGsVojbxwarNUZ3W9JP0pymnO6Q/saYrlYS8pKV+KC0ZBJQsL2m7mDuC2WPYH/pU7aO9Md0E6tqF142Q5YXS6VeL/NZFqPO4bd7z7YSEW0WTcONIG00tGQR28D/tYmoyfkpGJSaRsB2oTAM+zxGh7Cagm+T3meYFD2szHmys30w24xz4os4nCHaL4DiO4ziO4ziO4zjOj8YSXP9qzv4q9SwHjxc6josX8jhLj7Mcisenj8Tf7T8Sj08fifvNkbjfHInnnBnJUNt0bbrfHMjANd0zUcBvDrvfTPaNzN9M+2aP4ziO4ziO4ziO4/wF/Ppf00cy+vlmCwA648uSwGCjk2jSe4QXfy1lxHuAxz6R+3+4fi9JPdJ2Y8GaK4mBcFLnGvj2Pq9OrPC8Ns9ss7yNf+P3GT13x/8JwfYFC13/MJDs1W/vGWGbTZv5bbt9NCBupeRsaVIwY01CgbaM/a+ZSSpQ0J6ponZTcJHVWUisQi2xiyWswXQX0DSkyj348eMkLU9xHc39AO1vlvmwPT4/j5hlYtLVUeQ6lMMQdpVUFkRM44StSiyzhXkBC8RuX1YLtguVgmJgFQaLgxVQLuETb/AMo2xz3u4HdbCl5KlLZZg1RUuPcD7TTXdphrraAPS9x1PobYmwYdtVLdcG09cUalM+N1mLoxlhm+xZ3e57S7XOLRPFbBkaUhcuS7A9CSeYYwIoMYKFefdVKFvyAtBTAsAZWP4CKzkLZMauGps2dWrt4kwvS5yvgkrTXHFhQIGglnMXLkp0powusySwxEaFEgrjbBMr0HarMYYZ8LyJAltfBe2iULBVByDE1pNOs00qEtZ1VtJ1CNqaw8nftGnfyW1R6pzp3KOx2QgtYYVWIeXDsIqNElt3MgSdK6ODXbC8ExWCTl9R52KcOJcJY2yzGVeettsBX7K9sE3T5gczvS5YaMz01hJ9RugZu9pM16fZJtens3wYwxlmmyS9LU16mBDKkkNXJFXAu5/KEmisKkkFS1iHumOeKispKOEdUsIdEswlBTkBpvhJPJp+ODNFyzzBITNjyHiap36God9DCkwltSxTadqMMFWDlwwL9IQ1vZUk6A5TdlngCnQUNNTv3m0L5c3cM2GQ0CpLUEXL/EtMc6xtDkCpDZncUL8EclauJW0v9hisA7NDRSuxXykhcKNdELXHihKst1fRdjzPa3P+OzJR/BXkqxXVcRzHcRzHcRzHcZyfzPcl//9rOMvo/SweL7TZj4sXGvt880fi76geicdZjsRjgEfi8ekj8dwJI3G/ORLPOTMSz4c0EvebI/E1fSQD/aZnoti86os4juM4juM4juM4jnM3r85H8F20pw+PPYR4+NHFPU+L+e5Z25TCeB9uTPyYTx4pnHahlU8b+RDGxr1Le5/wKbbzLk7hs3dyx3c92ruUN3q78hKDfiafKaLFnL8D3/ptMDxtseHfyUff+1nfJ/zYF4Me1ubttsk4ycTgRwbnQpUzPqWRT63q45dn89X0QoGYeXnk20D5g+iz9Z3X60m+pPS3p2NAT2jz1tMpbo7B5hZAp0+9DJ2k6+wQPWHEPLekEkpBoTFSQIm9n36NA8a8T9zPj1QzfAiqFwisfmoPB7RMFNwqNwWzXbA9bmxnD+IGN0f7pfXN/oy2NuFubn723oL2cdV1LguYXWdrfbvsdZgnSzMxMwCVY07YSCgSirQpW4eZ2yNrzc88tRezLzFCWyYwFhgidzMRBRtOLNc0gaCkFzrTwmtkodniFMf9JWV9u//rZ3qbMzViYLlke438yTaVkOBExe5Ay6EAH4Ga9AzoZqACoUUeC5mXxMJ6A+qhEVs4oGFaHRuSUBl5bbkT5qDD1twULNWp0OJi1m8mK+5ah1KVdTxtm0wuYKkEVgHb8yjOnhSBsfgYPEePSt02r2haRjtKogAlJhjNDEMNNrzAsOlZyuRPNMJZ6TygR559fcFZm6nzwn6hC8qfkBfz2Ly2m4hdOByHrk7ybO25fr89m1EHKGgIHGerXngG6+9jNL/5f22mfrqGnQLnZiy+FbHwfW2enD/bkDYjmpsrXGEfKSzMDNyABhJV0m2z1bLcCVj5cDBHrcOpzTU3BXeZQtbenGnzeqb3lB/vmA/mmwQzgYe4/W+WlqcIJnGm5I+0aZ4nwH5PtqmrTnVQSPSbM8ycbWoIWIukSNPEmkiq26bGhzLtgIqDklBxr3WB1VuSmwsVnin2c+B2u4k+Y5u3ahNzNcFRQUE2QLJqM1+plX4P/UurbWJYsEsKmE26v+Kx9IDwdrj1ytAtXSqWAigaatb9fEhzlAB3mZSAotmmHDLcHHSLGyzsgsDm7Ve7M3XQXd9E6brE4X/ANrnmTez0uTa736zT5e0inetEN8i7d1ohDlsmW9yVVIIrEY6FrTNNB0vQqHnkgtZYghsnLtMowtFa5tEeJjnrqT0u6u0oXALcK4CW3IonItdu8zYets17vvfO/BDa2I+k/0L4TiJDK1Jlk5haQiRr57SfuSi4g83wMJ5IRfxs+1imTf9AM+s5rD1BaZ3zsHZt7+PxmT6/rS7mX6LN27Ppew9X6ascx3Ecx3Ecx3Ecx/mJzNNDzwX+JeKnXwi4C89EsTl69NVAPDJwJB5RPZKBcZYeUe0zfSg+00fi+ZBG4rY5Es/rMZKhtvnrZ7rb5kgG5pz5MKrh99C/0OM4juM4juM4juM4juM4z7PZ/Ae9raiPySB3NQAAAABJRU5ErkJggg==;" vertex="1" parent="1">
          <mxGeometry x="259" y="4490" width="333" height="322" as="geometry" />
        </mxCell>
      </root>
    </mxGraphModel>
  </diagram>
</mxfile>
